<svg xmlns="http://www.w3.org/2000/svg" xmlns:xlink="http://www.w3.org/1999/xlink" width="820" height="320.991" viewBox="0 0 820 320.991">
  <defs>
    <filter id="Rectángulo_402126" x="212.456" y="33.993" width="396" height="256" filterUnits="userSpaceOnUse">
      <feOffset dy="3" input="SourceAlpha"/>
      <feGaussianBlur stdDeviation="3" result="blur"/>
      <feFlood flood-opacity="0.161"/>
      <feComposite operator="in" in2="blur"/>
      <feComposite in="SourceGraphic"/>
    </filter>
    <filter id="Rectángulo_402128" x="212.456" y="41.993" width="396" height="31" filterUnits="userSpaceOnUse">
      <feOffset dy="3" input="SourceAlpha"/>
      <feGaussianBlur stdDeviation="3" result="blur-2"/>
      <feFlood flood-opacity="0.31"/>
      <feComposite operator="in" in2="blur-2"/>
      <feComposite in="SourceGraphic"/>
    </filter>
    <filter id="Rectángulo_402127" x="201.456" y="21.993" width="418" height="51" filterUnits="userSpaceOnUse">
      <feOffset dy="3" input="SourceAlpha"/>
      <feGaussianBlur stdDeviation="3" result="blur-3"/>
      <feFlood flood-opacity="0.161"/>
      <feComposite operator="in" in2="blur-3"/>
      <feComposite in="SourceGraphic"/>
    </filter>
  </defs>
  <g id="Grupo_1106686" data-name="Grupo 1106686" transform="translate(-390 -2045.007)">
    <rect id="Rectángulo_402124" data-name="Rectángulo 402124" width="820" height="320.991" rx="23" transform="translate(390 2045.007)" fill="#edf1ef"/>
    <g id="Grupo_1106685" data-name="Grupo 1106685">
      <g transform="matrix(1, 0, 0, 1, 390, 2045.01)" filter="url(#Rectángulo_402126)">
        <g id="Rectángulo_402126-2" data-name="Rectángulo 402126" transform="translate(221.46 39.99)" fill="#ccaf91" stroke="#707070" stroke-width="1">
          <rect width="378" height="238" stroke="none"/>
          <rect x="0.5" y="0.5" width="377" height="237" fill="none"/>
        </g>
      </g>
      <g transform="matrix(1, 0, 0, 1, 390, 2045.01)" filter="url(#Rectángulo_402128)">
        <rect id="Rectángulo_402128-2" data-name="Rectángulo 402128" width="378" height="13" transform="translate(221.46 47.99)" fill="#8d7964"/>
      </g>
      <text id="Estira_el_material" data-name="Estira el material" transform="translate(800.456 2307.335)" fill="#4b1c16" font-size="10" font-family="Roboto-Regular, Roboto"><tspan x="-37.141" y="0">Estira el material</tspan></text>
      <g id="Grupo_1106684" data-name="Grupo 1106684" transform="translate(-32.5 756.335)">
        <line id="Línea_725" data-name="Línea 725" x2="298" transform="translate(682.456 1538)" fill="none" stroke="#567e6f" stroke-width="1"/>
        <path id="Polígono_6" data-name="Polígono 6" d="M3,0,6,5H0Z" transform="translate(680 1541) rotate(-90)" fill="#567e6f"/>
        <path id="Polígono_7" data-name="Polígono 7" d="M3,0,6,5H0Z" transform="translate(985 1535) rotate(90)" fill="#567e6f"/>
      </g>
      <text id="Estabilidad" transform="translate(968.5 2201.379) rotate(-90)" fill="#4b1c16" font-size="10" font-family="Roboto-Regular, Roboto"><tspan x="-24.578" y="0">Estabilidad</tspan></text>
      <g id="Grupo_1106677" data-name="Grupo 1106677" transform="translate(-582.5 2974.335) rotate(-90)">
        <line id="Línea_725-2" data-name="Línea 725" x2="176.5" transform="translate(682.456 1538)" fill="none" stroke="#567e6f" stroke-width="1"/>
        <path id="Polígono_6-2" data-name="Polígono 6" d="M3,0,6,5H0Z" transform="translate(680 1541) rotate(-90)" fill="#567e6f"/>
        <path id="Polígono_7-2" data-name="Polígono 7" d="M3,0,6,5H0Z" transform="translate(863.5 1535) rotate(90)" fill="#567e6f"/>
      </g>
      <g transform="matrix(1, 0, 0, 1, 390, 2045.01)" filter="url(#Rectángulo_402127)">
        <g id="Rectángulo_402127-2" data-name="Rectángulo 402127" transform="translate(210.46 27.99)" fill="#8d7964" stroke="#707070" stroke-width="1">
          <rect width="400" height="33" rx="13" stroke="none"/>
          <rect x="0.5" y="0.5" width="399" height="32" rx="12.5" fill="none"/>
        </g>
      </g>
      <text id="Rollo" transform="translate(800.456 2095)" fill="#fff" font-size="10" font-family="Roboto-Bold, Roboto" font-weight="700"><tspan x="-11.497" y="0">Rollo</tspan></text>
    </g>
  </g>
</svg>
