<svg xmlns="http://www.w3.org/2000/svg" xmlns:xlink="http://www.w3.org/1999/xlink" width="140" height="140" viewBox="0 0 140 140">
  <defs>
    <clipPath id="clip-path">
      <circle id="closeup-bottle-water-hands-traveler" cx="63" cy="63" r="63" transform="translate(304 1619.892)" fill="#567e6f"/>
    </clipPath>
    <clipPath id="clip-path-2">
      <rect id="Rectángulo_402111" data-name="Rectángulo 402111" width="54.579" height="117.809" fill="none"/>
    </clipPath>
  </defs>
  <g id="Grupo_1106634" data-name="Grupo 1106634" transform="translate(-297 -1612.892)">
    <g id="Elipse_11497" data-name="Elipse 11497" transform="translate(297 1612.892)" fill="none" stroke="#c2b299" stroke-linecap="round" stroke-width="3" stroke-dasharray="9 14">
      <circle cx="70" cy="70" r="70" stroke="none"/>
      <circle cx="70" cy="70" r="68.5" fill="none"/>
    </g>
    <circle id="closeup-bottle-water-hands-traveler-2" data-name="closeup-bottle-water-hands-traveler" cx="63" cy="63" r="63" transform="translate(304 1619.892)" fill="#567e6f"/>
    <g id="Enmascarar_grupo_1098682" data-name="Enmascarar grupo 1098682" clip-path="url(#clip-path)">
      <g id="Grupo_1106640" data-name="Grupo 1106640" transform="translate(339.667 1636.29)">
        <g id="Grupo_1106639" data-name="Grupo 1106639" clip-path="url(#clip-path-2)">
          <path id="Trazado_891175" data-name="Trazado 891175" d="M58.125,0H39.17a.608.608,0,0,0-.606.606V6.124a.607.607,0,0,1-.606.606H31.68a.607.607,0,0,1-.606-.606V.606A.608.608,0,0,0,30.468,0H11.513a.608.608,0,0,0-.605.606v117.2H58.731V.606A.608.608,0,0,0,58.125,0" transform="translate(-7.53)" fill="#753811" fill-rule="evenodd"/>
          <path id="Trazado_891176" data-name="Trazado 891176" d="M10.909,206.335v7.931c.311.624.644,1.231.989,1.817a46.615,46.615,0,0,0,4.659,6.369,35.292,35.292,0,0,0,9.034,7.184,19.65,19.65,0,0,0,9.229,2.71,19.649,19.649,0,0,0,9.229-2.71,35.289,35.289,0,0,0,9.034-7.184,46.615,46.615,0,0,0,4.659-6.369c.346-.586.678-1.192.989-1.816v-7.931h-2.1a15.641,15.641,0,0,1-2.5,7.616,42.722,42.722,0,0,1-4.25,5.795,30.643,30.643,0,0,1-7.853,6.216,15.552,15.552,0,0,1-7.212,2.185,15.551,15.551,0,0,1-7.212-2.185,30.652,30.652,0,0,1-7.853-6.216,42.791,42.791,0,0,1-4.249-5.795,15.645,15.645,0,0,1-2.5-7.616Z" transform="translate(-7.531 -142.438)" fill="#5c2909" fill-rule="evenodd"/>
          <path id="Trazado_891177" data-name="Trazado 891177" d="M58.125,0H39.17a.608.608,0,0,0-.606.606V6.124a.607.607,0,0,1-.606.606H31.68a.607.607,0,0,1-.606-.606V.606A.608.608,0,0,0,30.468,0H11.513a.608.608,0,0,0-.605.606V64.035h0c0,6.09,5.032,12.141,7.247,14.764s9.665,9.147,16.664,9.147S49.268,81.422,51.484,78.8s7.247-8.674,7.247-14.764V.606A.608.608,0,0,0,58.125,0" transform="translate(-7.53)" fill="#8c4418" fill-rule="evenodd"/>
          <path id="Trazado_891178" data-name="Trazado 891178" d="M58.125,0H39.17a.608.608,0,0,0-.606.606V6.124a.607.607,0,0,1-.606.606H31.68a.607.607,0,0,1-.606-.606V.606A.608.608,0,0,0,30.468,0H11.513a.608.608,0,0,0-.605.606V13.382H58.731V.606A.608.608,0,0,0,58.125,0" transform="translate(-7.53)" fill="#ad561f" fill-rule="evenodd"/>
          <path id="Trazado_891179" data-name="Trazado 891179" d="M60.684,42.779h3.148v-.708H60.684Zm-40.3,0h3.149v-.708H20.379Zm5.038,0h3.149v-.708H25.417Zm5.038,0H33.6v-.708H30.455Zm5.038,0h3.149v-.708H35.493Zm5.038,0H43.68v-.708H40.531Zm5.038,0h3.149v-.708H45.57Zm5.038,0h3.149v-.708H50.607Zm5.038,0h3.149v-.708H55.646Z" transform="translate(-14.068 -29.043)" fill="#5c2909" fill-rule="evenodd"/>
          <path id="Trazado_891180" data-name="Trazado 891180" d="M60.684,133.992h3.148v-.708H60.684Zm-40.3,0h3.149v-.708H20.379Zm5.038,0h3.149v-.708H25.417Zm5.038,0H33.6v-.708H30.455Zm5.038,0h3.149v-.708H35.493Zm5.038,0H43.68v-.708H40.531Zm5.038,0h3.149v-.708H45.57Zm5.038,0h3.149v-.708H50.607Zm5.038,0h3.149v-.708H55.646Z" transform="translate(-14.068 -92.009)" fill="#5c2909" fill-rule="evenodd"/>
          <path id="Trazado_891184" data-name="Trazado 891184" d="M78.947,243.272a4.116,4.116,0,1,1,4.116-4.116,4.116,4.116,0,0,1-4.116,4.116" transform="translate(-51.658 -162.254)" fill="#bdbdbd" fill-rule="evenodd"/>
          <path id="Trazado_891185" data-name="Trazado 891185" d="M80.856,244.324a3.26,3.26,0,1,1,3.26-3.26,3.26,3.26,0,0,1-3.26,3.26" transform="translate(-53.566 -164.162)" fill="#9c9c9c" fill-rule="evenodd"/>
        </g>
      </g>
    </g>
  </g>
</svg>
