<svg xmlns="http://www.w3.org/2000/svg" xmlns:xlink="http://www.w3.org/1999/xlink" width="140" height="140" viewBox="0 0 140 140">
  <defs>
    <clipPath id="clip-path">
      <circle id="closeup-bottle-water-hands-traveler" cx="63" cy="63" r="63" transform="translate(304 1619.892)" fill="#567e6f"/>
    </clipPath>
    <clipPath id="clip-path-2">
      <rect id="Rect치ngulo_402113" data-name="Rect치ngulo 402113" width="73.824" height="76.982" fill="none"/>
    </clipPath>
  </defs>
  <g id="Grupo_1106635" data-name="Grupo 1106635" transform="translate(-297 -1612.892)">
    <g id="Elipse_11497" data-name="Elipse 11497" transform="translate(297 1612.892)" fill="none" stroke="#c2b299" stroke-linecap="round" stroke-width="3" stroke-dasharray="9 14">
      <circle cx="70" cy="70" r="70" stroke="none"/>
      <circle cx="70" cy="70" r="68.5" fill="none"/>
    </g>
    <circle id="closeup-bottle-water-hands-traveler-2" data-name="closeup-bottle-water-hands-traveler" cx="63" cy="63" r="63" transform="translate(304 1619.892)" fill="#567e6f"/>
    <g id="Enmascarar_grupo_1098682" data-name="Enmascarar grupo 1098682" clip-path="url(#clip-path)">
      <g id="Grupo_1106643" data-name="Grupo 1106643" transform="translate(330.088 1644.4)">
        <rect id="Rect치ngulo_402112" data-name="Rect치ngulo 402112" width="66.107" height="3.35" transform="translate(3.858 71.864)" fill="#8c8c8c"/>
        <g id="Grupo_1106642" data-name="Grupo 1106642">
          <g id="Grupo_1106641" data-name="Grupo 1106641" clip-path="url(#clip-path-2)">
            <path id="Trazado_891186" data-name="Trazado 891186" d="M65.889,0H7.934A7.957,7.957,0,0,0,0,7.935V74.867a2.122,2.122,0,0,0,2.116,2.116H5.6V19.1a1.326,1.326,0,0,1,1.322-1.322H66.9A1.326,1.326,0,0,1,68.223,19.1V76.982h3.485a2.122,2.122,0,0,0,2.116-2.116V7.935A7.958,7.958,0,0,0,65.889,0" fill="#a3a3a3" fill-rule="evenodd"/>
            <path id="Trazado_891187" data-name="Trazado 891187" d="M82.558,24.58H74.93a.961.961,0,0,0-.958.958v6.143h9.544V25.538a.961.961,0,0,0-.958-.958" transform="translate(-41.832 -13.9)" fill="#787878" fill-rule="evenodd"/>
            <path id="Trazado_891188" data-name="Trazado 891188" d="M72.647,9.308a7.958,7.958,0,0,0-7.935-7.935H9.112A7.958,7.958,0,0,0,1.177,9.308V68.142a2.122,2.122,0,0,0,2.116,2.116H5.6v6.725H2.116a2.1,2.1,0,0,1-.864-.186A2.122,2.122,0,0,1,0,74.867V7.935A7.958,7.958,0,0,1,7.935,0H65.89a7.958,7.958,0,0,1,7.935,7.935V74.867a2.123,2.123,0,0,1-1.252,1.93,2.1,2.1,0,0,1-.864.186H68.224V70.258h2.307a2.122,2.122,0,0,0,2.116-2.116Z" fill="#bdbdbd" fill-rule="evenodd"/>
            <path id="Trazado_891189" data-name="Trazado 891189" d="M82.935,28.732h-4.27a1.061,1.061,0,0,0-1.058,1.058V92.7a.531.531,0,0,0,.529.529h5.328a.53.53,0,0,0,.529-.529V29.79a1.061,1.061,0,0,0-1.058-1.058" transform="translate(-43.888 -16.248)" fill="#ababab" fill-rule="evenodd"/>
            <path id="Trazado_891190" data-name="Trazado 891190" d="M77.607,160.642V158.2a.531.531,0,0,1,.529-.529h5.328a.531.531,0,0,1,.529.529v2.439Z" transform="translate(-43.888 -89.167)" fill="#9c9c9c" fill-rule="evenodd"/>
            <path id="Trazado_891191" data-name="Trazado 891191" d="M83.464,168H78.137a.53.53,0,0,1-.529-.529v-6.528h6.385v6.528a.53.53,0,0,1-.529.529" transform="translate(-43.888 -91.013)" fill="#bdbdbd" fill-rule="evenodd"/>
          </g>
        </g>
      </g>
    </g>
  </g>
</svg>
