<svg xmlns="http://www.w3.org/2000/svg" width="503.867" height="252.5" viewBox="0 0 503.867 252.5">
  <g id="Grupo_1106441" data-name="Grupo 1106441" transform="translate(-600.872 -5162)">
    <text id="Doblez" transform="translate(608.872 5288) rotate(-90)" fill="#4b1c16" font-size="8" font-family="Roboto-Regular, Roboto"><tspan x="-12.221" y="0">Doblez</tspan></text>
    <rect id="Rectángulo_402047" data-name="Rectángulo 402047" width="169.243" height="252" transform="translate(612.757 5162.5)" fill="#ebe6e6"/>
    <path id="Unión_15" data-name="Unión 15" d="M27.763,207.834v-27.1H0V0H269.108V180.731H241.345v27.1Z" transform="translate(835.631 5166.26)" fill="#ebe6e6"/>
    <line id="Línea_638" data-name="Línea 638" x2="169.628" transform="translate(612.628 5174)" fill="none" stroke="#b6a3a1" stroke-width="1"/>
    <line id="Línea_656" data-name="Línea 656" x2="140.628" transform="translate(612.628 5402)" fill="none" stroke="#b6a3a1" stroke-width="1"/>
    <line id="Línea_648" data-name="Línea 648" x2="134.628" transform="translate(612.628 5381)" fill="none" stroke="#dad0cf" stroke-width="1"/>
    <line id="Línea_649" data-name="Línea 649" x2="30" transform="translate(747.257 5381)" fill="none" stroke="#b6a3a1" stroke-width="1"/>
    <line id="Línea_654" data-name="Línea 654" x2="24" transform="translate(753 5386)" fill="none" stroke="#b6a3a1" stroke-width="1"/>
    <line id="Línea_645" data-name="Línea 645" y1="251.5" transform="translate(747 5162.5)" fill="none" stroke="#dad0cf" stroke-linecap="square" stroke-width="1"/>
    <line id="Línea_651" data-name="Línea 651" y1="21" transform="translate(747 5381)" fill="none" stroke="#b6a3a1" stroke-linecap="square" stroke-width="1"/>
    <line id="Línea_652" data-name="Línea 652" y1="28" transform="translate(753 5381)" fill="none" stroke="#b6a3a1" stroke-linecap="square" stroke-width="1"/>
    <line id="Línea_639" data-name="Línea 639" y1="223.5" transform="translate(771 5162.5)" fill="none" stroke="#b6a3a1" stroke-linecap="square" stroke-width="1"/>
    <line id="Línea_640" data-name="Línea 640" y1="223.5" transform="translate(777 5162.5)" fill="none" stroke="#b6a3a1" stroke-linecap="square" stroke-width="1"/>
    <line id="Línea_657" data-name="Línea 657" x2="140.628" transform="translate(612.628 5409)" fill="none" stroke="#b6a3a1" stroke-width="1"/>
    <g id="XMLID_1022_" transform="translate(777 5113.492)">
      <g id="XMLID_12_" transform="translate(0.357 66.476)">
        <g id="XMLID_1174_" transform="translate(4.677 2.726)">
          <path id="XMLID_291_" d="M145.886,152.487v1.84a1.294,1.294,0,0,1-.952,1.248l-3.915,1.073Z" transform="translate(-141.019 -152.487)" fill="#ebe6e6"/>
        </g>
        <g id="XMLID_1173_">
          <g id="XMLID_1176_" transform="translate(0 7.069)">
            <path id="XMLID_290_" d="M14.042,274.146,10,279.919A7.135,7.135,0,0,0,14.5,277a1.862,1.862,0,0,0,.229-1.691v0Z" transform="translate(-10 -274.146)" fill="#fff"/>
          </g>
          <g id="XMLID_1177_" transform="translate(3.941)">
            <path id="XMLID_289_" d="M126.074,76.21l.734.514a.56.56,0,0,1,.138.78l-4.783,6.83a.56.56,0,0,1-.78.137l-.734-.514a.56.56,0,0,1-.138-.78l4.783-6.83A.56.56,0,0,1,126.074,76.21Z" transform="translate(-120.41 -76.108)" fill="#4b1c16"/>
          </g>
          <g id="XMLID_1059_" transform="translate(3.547 2.106)">
            <path id="XMLID_288_" d="M123.382,139.049a14.472,14.472,0,0,1-4.049-2.489l-.292-.254a4.926,4.926,0,0,0-3.233-1.21l-.435.694v1.767a1.294,1.294,0,0,1-.952,1.248l-3.915,1.073a1.626,1.626,0,0,0-1.13,1.481,1.329,1.329,0,0,0,1.547,1.155l2.993-.517a2.471,2.471,0,0,1,2.11.62,6.755,6.755,0,0,0,4.628,1.826h2.738Z" transform="translate(-109.376 -135.096)" fill="#ebe6e6"/>
          </g>
        </g>
        <g id="XMLID_1199_" transform="translate(3.436 8.981)">
          <path id="XMLID_176_" d="M111.053,327.706,107.9,330.58a.984.984,0,0,1-1.647-.722l1.276-1.6Z" transform="translate(-106.257 -327.706)" fill="#ebe6e6"/>
        </g>
        <g id="XMLID_1545_" transform="translate(1.601 2.24)">
          <path id="XMLID_168_" d="M60.67,138.863l-4.034,5.76a.984.984,0,0,1-1.612-1.129l1.785-2.567A4.813,4.813,0,0,1,60.67,138.863Z" transform="translate(-54.846 -138.863)" fill="#ebe6e6"/>
        </g>
      </g>
      <g id="XMLID_292_" transform="translate(0 66.119)">
        <path id="XMLID_293_" d="M414.008,194.38a14.848,14.848,0,0,0,2.849,1.54.357.357,0,1,0,.269-.661,14.138,14.138,0,0,1-2.712-1.466.357.357,0,0,0-.406.587Z" transform="translate(-399.081 -189.174)" fill="#12263f"/>
        <path id="XMLID_294_" d="M378.677,166.829a.357.357,0,1,0-.252-.1A.358.358,0,0,0,378.677,166.829Z" transform="translate(-364.816 -162.546)" fill="#12263f"/>
        <path id="XMLID_954_" d="M17.919,77.57H15.181A6.4,6.4,0,0,1,10.8,75.84a2.841,2.841,0,0,0-2.414-.71l-2.993.517a.972.972,0,0,1-1.129-.824,1.266,1.266,0,0,1,.867-1.116l3.915-1.073a1.655,1.655,0,0,0,1.215-1.593V69.314l.261-.372a4.593,4.593,0,0,1,1.876.486.357.357,0,0,0,.322-.637,5.309,5.309,0,0,0-1.725-.525l.134-.191A.918.918,0,0,0,10.9,66.8l-.734-.514a.918.918,0,0,0-1.277.225l-1.3,1.856a5.185,5.185,0,0,0-3.962,2.21L1.843,73.142a1.341,1.341,0,0,0,.932,2.1L.065,79.113a.357.357,0,0,0,.36.555A7.465,7.465,0,0,0,3.6,78.24a1.342,1.342,0,0,0,2.084.354l3.054-2.787a2.116,2.116,0,0,1,1.575.555,7.11,7.11,0,0,0,4.872,1.922h2.738a.357.357,0,1,0,0-.714ZM9.544,71.042a.94.94,0,0,1-.69.9l-.543.149,1.233-1.761v.708Zm-.069-4.123a.2.2,0,0,1,.283-.05l.734.514a.2.2,0,0,1,.05.283L7.233,72.39l-1.966.539ZM2.429,73.55l1.785-2.567a4.47,4.47,0,0,1,2.826-1.833l-3.585,5.12a.627.627,0,1,1-1.027-.72Zm1.208,1.706a1.67,1.67,0,0,0,.579.783,1.7,1.7,0,0,0,.327.192,7.1,7.1,0,0,1-.987,1.113c-.016.012.014-.015,0,0a6.868,6.868,0,0,1-2.347,1.38ZM5.2,78.067a.626.626,0,0,1-1.032-.317,7.547,7.547,0,0,0,.983-1.142,2.215,2.215,0,0,0,.143-.234,1.724,1.724,0,0,0,.218-.023l1.934-.334Z" transform="translate(0 -66.119)" fill="#12263f"/>
      </g>
    </g>
    <g id="XMLID_1022_2" data-name="XMLID_1022_" transform="translate(620 5329.325)">
      <g id="XMLID_12_2" data-name="XMLID_12_" transform="translate(0.357 66.476)">
        <g id="XMLID_1174_2" data-name="XMLID_1174_" transform="translate(4.677 2.726)">
          <path id="XMLID_291_2" data-name="XMLID_291_" d="M145.886,152.487v1.84a1.294,1.294,0,0,1-.952,1.248l-3.915,1.073Z" transform="translate(-141.019 -152.487)" fill="#ebe6e6"/>
        </g>
        <g id="XMLID_1173_2" data-name="XMLID_1173_">
          <g id="XMLID_1176_2" data-name="XMLID_1176_" transform="translate(0 7.069)">
            <path id="XMLID_290_2" data-name="XMLID_290_" d="M14.042,274.146,10,279.919A7.135,7.135,0,0,0,14.5,277a1.862,1.862,0,0,0,.229-1.691v0Z" transform="translate(-10 -274.146)" fill="#fff"/>
          </g>
          <g id="XMLID_1177_2" data-name="XMLID_1177_" transform="translate(3.941)">
            <path id="XMLID_289_2" data-name="XMLID_289_" d="M126.074,76.21l.734.514a.56.56,0,0,1,.138.78l-4.783,6.83a.56.56,0,0,1-.78.137l-.734-.514a.56.56,0,0,1-.138-.78l4.783-6.83A.56.56,0,0,1,126.074,76.21Z" transform="translate(-120.41 -76.108)" fill="#4b1c16"/>
          </g>
          <g id="XMLID_1059_2" data-name="XMLID_1059_" transform="translate(3.547 2.106)">
            <path id="XMLID_288_2" data-name="XMLID_288_" d="M123.382,139.049a14.472,14.472,0,0,1-4.049-2.489l-.292-.254a4.926,4.926,0,0,0-3.233-1.21l-.435.694v1.767a1.294,1.294,0,0,1-.952,1.248l-3.915,1.073a1.626,1.626,0,0,0-1.13,1.481,1.329,1.329,0,0,0,1.547,1.155l2.993-.517a2.471,2.471,0,0,1,2.11.62,6.755,6.755,0,0,0,4.628,1.826h2.738Z" transform="translate(-109.376 -135.096)" fill="#ebe6e6"/>
          </g>
        </g>
        <g id="XMLID_1199_2" data-name="XMLID_1199_" transform="translate(3.436 8.981)">
          <path id="XMLID_176_2" data-name="XMLID_176_" d="M111.053,327.706,107.9,330.58a.984.984,0,0,1-1.647-.722l1.276-1.6Z" transform="translate(-106.257 -327.706)" fill="#ebe6e6"/>
        </g>
        <g id="XMLID_1545_2" data-name="XMLID_1545_" transform="translate(1.601 2.24)">
          <path id="XMLID_168_2" data-name="XMLID_168_" d="M60.67,138.863l-4.034,5.76a.984.984,0,0,1-1.612-1.129l1.785-2.567A4.813,4.813,0,0,1,60.67,138.863Z" transform="translate(-54.846 -138.863)" fill="#ebe6e6"/>
        </g>
      </g>
      <g id="XMLID_292_2" data-name="XMLID_292_" transform="translate(0 66.119)">
        <path id="XMLID_293_2" data-name="XMLID_293_" d="M414.008,194.38a14.848,14.848,0,0,0,2.849,1.54.357.357,0,1,0,.269-.661,14.138,14.138,0,0,1-2.712-1.466.357.357,0,0,0-.406.587Z" transform="translate(-399.081 -189.174)" fill="#12263f"/>
        <path id="XMLID_294_2" data-name="XMLID_294_" d="M378.677,166.829a.357.357,0,1,0-.252-.1A.358.358,0,0,0,378.677,166.829Z" transform="translate(-364.816 -162.546)" fill="#12263f"/>
        <path id="XMLID_954_2" data-name="XMLID_954_" d="M17.919,77.57H15.181A6.4,6.4,0,0,1,10.8,75.84a2.841,2.841,0,0,0-2.414-.71l-2.993.517a.972.972,0,0,1-1.129-.824,1.266,1.266,0,0,1,.867-1.116l3.915-1.073a1.655,1.655,0,0,0,1.215-1.593V69.314l.261-.372a4.593,4.593,0,0,1,1.876.486.357.357,0,0,0,.322-.637,5.309,5.309,0,0,0-1.725-.525l.134-.191A.918.918,0,0,0,10.9,66.8l-.734-.514a.918.918,0,0,0-1.277.225l-1.3,1.856a5.185,5.185,0,0,0-3.962,2.21L1.843,73.142a1.341,1.341,0,0,0,.932,2.1L.065,79.113a.357.357,0,0,0,.36.555A7.465,7.465,0,0,0,3.6,78.24a1.342,1.342,0,0,0,2.084.354l3.054-2.787a2.116,2.116,0,0,1,1.575.555,7.11,7.11,0,0,0,4.872,1.922h2.738a.357.357,0,1,0,0-.714ZM9.544,71.042a.94.94,0,0,1-.69.9l-.543.149,1.233-1.761v.708Zm-.069-4.123a.2.2,0,0,1,.283-.05l.734.514a.2.2,0,0,1,.05.283L7.233,72.39l-1.966.539ZM2.429,73.55l1.785-2.567a4.47,4.47,0,0,1,2.826-1.833l-3.585,5.12a.627.627,0,1,1-1.027-.72Zm1.208,1.706a1.67,1.67,0,0,0,.579.783,1.7,1.7,0,0,0,.327.192,7.1,7.1,0,0,1-.987,1.113c-.016.012.014-.015,0,0a6.868,6.868,0,0,1-2.347,1.38ZM5.2,78.067a.626.626,0,0,1-1.032-.317,7.547,7.547,0,0,0,.983-1.142,2.215,2.215,0,0,0,.143-.234,1.724,1.724,0,0,0,.218-.023l1.934-.334Z" transform="translate(0 -66.119)" fill="#12263f"/>
      </g>
    </g>
    <g id="Unión_16" data-name="Unión 16" transform="translate(835.631 5166.377)" fill="none">
      <path d="M27.763,207.834v-27.1H0V0H269.108V180.731H241.345v27.1Z" stroke="none"/>
      <path d="M 233.3447570800781 199.8339996337891 L 233.3447570800781 172.7314605712891 L 261.10791015625 172.7314605712891 L 261.10791015625 7.999045372009277 L 7.999502658843994 7.999045372009277 L 7.999502658843994 172.7314605712891 L 35.76271057128906 172.7314605712891 L 35.76271057128906 199.8339996337891 L 233.3447570800781 199.8339996337891 M 241.3447570800781 207.8339996337891 L 27.76271057128906 207.8339996337891 L 27.76271057128906 180.7314605712891 L -0.0004973958129994571 180.7314605712891 L -0.0004973958129994571 -0.000954427057877183 L 269.10791015625 -0.000954427057877183 L 269.10791015625 180.7314605712891 L 241.3447570800781 180.7314605712891 L 241.3447570800781 207.8339996337891 Z" stroke="none" fill="#b6a3a1"/>
    </g>
    <text id="Ventaja_de_costura" data-name="Ventaja de costura" transform="translate(842.685 5272.086) rotate(-90)" fill="#4b1c16" font-size="8" font-family="Roboto-Regular, Roboto"><tspan x="-33.154" y="0">Ventaja de costura</tspan></text>
    <text id="Ventaja_de_costura-2" data-name="Ventaja de costura" transform="translate(962.605 5371.821)" fill="#4b1c16" font-size="8" font-family="Roboto-Regular, Roboto"><tspan x="-33.154" y="0">Ventaja de costura</tspan></text>
    <text id="Ventaja_de_costura-3" data-name="Ventaja de costura" transform="translate(962.605 5173.192)" fill="#4b1c16" font-size="8" font-family="Roboto-Regular, Roboto"><tspan x="-33.154" y="0">Ventaja de costura</tspan></text>
    <text id="Ventaja_de_costura-4" data-name="Ventaja de costura" transform="translate(1102.321 5272.086) rotate(-90)" fill="#4b1c16" font-size="8" font-family="Roboto-Regular, Roboto"><tspan x="-33.154" y="0">Ventaja de costura</tspan></text>
    <g id="Unión_17" data-name="Unión 17" transform="translate(810 5195.093)" fill="#567e6f">
      <path d="M 47.48974990844727 32.14055633544922 L 47.48974990844727 24.56152725219727 L 47.48974990844727 24.06152725219727 L 46.98974990844727 24.06152725219727 L 0.4999985098838806 24.06152725219727 L 0.4999985098838806 9.042967796325684 L 46.98974990844727 9.042967796325684 L 47.48974990844727 9.042967796325684 L 47.48974990844727 8.542967796325684 L 47.48974990844727 0.9630401730537415 L 69.61290740966797 16.55271530151367 L 47.48974990844727 32.14055633544922 Z" stroke="none"/>
      <path d="M 47.98974990844727 31.17661285400391 L 68.74485778808594 16.55269241333008 L 47.98974990844727 1.927049517631531 L 47.98974990844727 9.542967796325684 L 0.9999985098838806 9.542967796325684 L 0.9999985098838806 23.56152725219727 L 47.98974990844727 23.56152725219727 L 47.98974990844727 31.17661285400391 M 46.98974990844727 33.10449600219727 L 46.98974990844727 24.56152725219727 L -1.484375047766662e-06 24.56152725219727 L -1.484375047766662e-06 8.542967796325684 L 46.98974990844727 8.542967796325684 L 46.98974990844727 -0.000972187495790422 L 70.48095703125 16.55273818969727 L 46.98974990844727 33.10449600219727 Z" stroke="none" fill="#2a3e37"/>
    </g>
  </g>
</svg>
