<svg xmlns="http://www.w3.org/2000/svg" width="400.003" height="577.855" viewBox="0 0 400.003 577.855">
  <g id="Grupo_1107005" data-name="Grupo 1107005" transform="translate(-599.758 -10799.572)">
    <path id="Trazado_895150" data-name="Trazado 895150" d="M3926.758,12185.567v-268.643h42v-40.282h-42V11608h400v268.642h-40.542v40.282h40.542v268.643Z" transform="translate(-3327 -808.429)" fill="#ebe6e6"/>
    <g id="Trazado_895151" data-name="Trazado 895151" transform="translate(-3327 -808.429)" fill="none">
      <path d="M3926.758,12185.567v-268.643h42v-40.282h-42V11608h400v268.642h-40.542v40.282h40.542v268.643Z" stroke="none"/>
      <path d="M 4318.76123046875 12177.5673828125 L 4318.76123046875 11924.9248046875 L 4278.21875 11924.9248046875 L 4278.21875 11868.642578125 L 4318.76123046875 11868.642578125 L 4318.76123046875 11616.0009765625 L 3934.7578125 11616.0009765625 L 3934.7578125 11868.642578125 L 3976.755859375 11868.642578125 L 3976.755859375 11924.9248046875 L 3934.7578125 11924.9248046875 L 3934.7578125 12177.5673828125 L 4318.76123046875 12177.5673828125 M 4326.76123046875 12185.5673828125 L 3926.7578125 12185.5673828125 L 3926.7578125 11916.9248046875 L 3968.755859375 11916.9248046875 L 3968.755859375 11876.642578125 L 3926.7578125 11876.642578125 L 3926.7578125 11608.0009765625 L 4326.76123046875 11608.0009765625 L 4326.76123046875 11876.642578125 L 4286.21875 11876.642578125 L 4286.21875 11916.9248046875 L 4326.76123046875 11916.9248046875 L 4326.76123046875 12185.5673828125 Z" stroke="none" fill="#b6a3a1"/>
    </g>
    <path id="Trazado_895158" data-name="Trazado 895158" d="M0,0V561.906" transform="translate(649.257 10807.428)" fill="none" stroke="#dad0cf" stroke-width="1"/>
    <path id="Trazado_895155" data-name="Trazado 895155" d="M0,0V561.906" transform="translate(951.257 10807.428)" fill="none" stroke="#dad0cf" stroke-width="1"/>
    <path id="Trazado_895152" data-name="Trazado 895152" d="M317,0H0" transform="translate(641.257 11061.283)" fill="none" stroke="#dad0cf" stroke-width="1"/>
    <path id="Trazado_895153" data-name="Trazado 895153" d="M317,0H0" transform="translate(641.257 11115.717)" fill="none" stroke="#dad0cf" stroke-width="1"/>
    <path id="Trazado_895156" data-name="Trazado 895156" d="M303,0H0" transform="translate(648.257 11088.5)" fill="none" stroke="#b6a3a1" stroke-width="1"/>
    <path id="Trazado_895157" data-name="Trazado 895157" d="M4.844-1.8A2.092,2.092,0,0,1,4.178-.412a2.183,2.183,0,0,1-1.49.49A2,2,0,0,1,1.072-.645,2.907,2.907,0,0,1,.465-2.578v-.547A3.241,3.241,0,0,1,.748-4.52a2.115,2.115,0,0,1,.8-.924,2.235,2.235,0,0,1,1.2-.322,2.055,2.055,0,0,1,1.453.506,2.118,2.118,0,0,1,.637,1.4H4.09a1.634,1.634,0,0,0-.424-.987,1.282,1.282,0,0,0-.912-.306,1.342,1.342,0,0,0-1.127.532,2.441,2.441,0,0,0-.408,1.513v.551a2.509,2.509,0,0,0,.387,1.474,1.25,1.25,0,0,0,1.082.547,1.443,1.443,0,0,0,.959-.283A1.572,1.572,0,0,0,4.09-1.8ZM8.363-.418a1.535,1.535,0,0,1-1.238.5A1.314,1.314,0,0,1,6.1-.314a1.7,1.7,0,0,1-.357-1.162v-2.75h.723V-1.5q0,.961.781.961a1.082,1.082,0,0,0,1.1-.617V-4.227h.723V0H8.379Zm3.555.5a1.847,1.847,0,0,1-1.4-.564A2.1,2.1,0,0,1,9.98-2v-.133a2.536,2.536,0,0,1,.24-1.123,1.874,1.874,0,0,1,.672-.773,1.689,1.689,0,0,1,.936-.279,1.583,1.583,0,0,1,1.281.543,2.351,2.351,0,0,1,.457,1.555v.3H10.7A1.5,1.5,0,0,0,11.068-.9a1.148,1.148,0,0,0,.889.385,1.259,1.259,0,0,0,.648-.156,1.629,1.629,0,0,0,.465-.414l.441.344A1.775,1.775,0,0,1,11.918.078Zm-.09-3.789a.964.964,0,0,0-.734.318,1.547,1.547,0,0,0-.367.893h2.117v-.055a1.376,1.376,0,0,0-.3-.854A.908.908,0,0,0,11.828-3.711Zm4.617.133a2.166,2.166,0,0,0-.355-.027A.952.952,0,0,0,15.125-3V0H14.4V-4.227h.7l.012.488A1.125,1.125,0,0,1,16.125-4.3a.738.738,0,0,1,.32.055ZM20.68-2.066a2.531,2.531,0,0,1-.441,1.555,1.415,1.415,0,0,1-1.2.59A1.55,1.55,0,0,1,17.832-.41V1.625h-.723V-4.227h.66l.035.469A1.489,1.489,0,0,1,19.031-4.3a1.441,1.441,0,0,1,1.205.574,2.558,2.558,0,0,1,.443,1.6Zm-.723-.082a1.867,1.867,0,0,0-.3-1.129.982.982,0,0,0-.836-.414,1.062,1.062,0,0,0-.984.582v2.02a1.064,1.064,0,0,0,.992.578.977.977,0,0,0,.826-.412A2.038,2.038,0,0,0,19.957-2.148Zm1.449,0A2.5,2.5,0,0,1,21.65-3.27a1.821,1.821,0,0,1,.68-.766,1.85,1.85,0,0,1,.994-.27,1.782,1.782,0,0,1,1.4.6,2.3,2.3,0,0,1,.533,1.59v.051a2.518,2.518,0,0,1-.236,1.107,1.794,1.794,0,0,1-.676.764,1.871,1.871,0,0,1-1.01.273,1.778,1.778,0,0,1-1.393-.6A2.288,2.288,0,0,1,21.406-2.1Zm.727.086a1.808,1.808,0,0,0,.326,1.129,1.044,1.044,0,0,0,.873.426,1.038,1.038,0,0,0,.875-.432,1.977,1.977,0,0,0,.324-1.209,1.805,1.805,0,0,0-.33-1.127,1.049,1.049,0,0,0-.877-.432,1.038,1.038,0,0,0-.863.426A1.963,1.963,0,0,0,22.133-2.066ZM26.176-.379a.453.453,0,0,1,.111-.312.424.424,0,0,1,.334-.125.437.437,0,0,1,.338.125.443.443,0,0,1,.115.313.419.419,0,0,1-.115.3.445.445,0,0,1-.338.121.432.432,0,0,1-.334-.121A.428.428,0,0,1,26.176-.379ZM4.844,7.2a2.092,2.092,0,0,1-.666,1.393,2.183,2.183,0,0,1-1.49.49,2,2,0,0,1-1.615-.723A2.907,2.907,0,0,1,.465,6.422V5.875A3.241,3.241,0,0,1,.748,4.48a2.115,2.115,0,0,1,.8-.924,2.235,2.235,0,0,1,1.2-.322,2.055,2.055,0,0,1,1.453.506,2.118,2.118,0,0,1,.637,1.4H4.09a1.634,1.634,0,0,0-.424-.987,1.282,1.282,0,0,0-.912-.306,1.342,1.342,0,0,0-1.127.532,2.441,2.441,0,0,0-.408,1.513v.551a2.509,2.509,0,0,0,.387,1.474,1.25,1.25,0,0,0,1.082.547,1.443,1.443,0,0,0,.959-.283A1.572,1.572,0,0,0,4.09,7.2ZM8.363,9a1.518,1.518,0,0,1-.1-.445,1.612,1.612,0,0,1-1.2.523,1.492,1.492,0,0,1-1.025-.354,1.144,1.144,0,0,1-.4-.9,1.2,1.2,0,0,1,.5-1.025,2.367,2.367,0,0,1,1.412-.365h.7V6.105a.812.812,0,0,0-.227-.6.911.911,0,0,0-.668-.225,1.054,1.054,0,0,0-.648.2.576.576,0,0,0-.262.473H5.719a1,1,0,0,1,.225-.611,1.533,1.533,0,0,1,.609-.467A2.05,2.05,0,0,1,7.4,4.7a1.671,1.671,0,0,1,1.145.365,1.318,1.318,0,0,1,.43,1.006V8.012a2.378,2.378,0,0,0,.148.926V9Zm-1.2-.551a1.27,1.27,0,0,0,.645-.176,1.063,1.063,0,0,0,.441-.457V6.949H7.684q-1.328,0-1.328.777a.658.658,0,0,0,.227.531A.871.871,0,0,0,7.164,8.449Zm3.625-3.676.023.531A1.54,1.54,0,0,1,12.078,4.7q1.34,0,1.352,1.512V9h-.723V6.2a.973.973,0,0,0-.209-.676.837.837,0,0,0-.639-.219,1.043,1.043,0,0,0-.617.188,1.273,1.273,0,0,0-.414.492V9h-.723V4.773ZM15.5,3.75V4.773h.789v.559H15.5V7.956a.587.587,0,0,0,.105.381.444.444,0,0,0,.359.127,1.75,1.75,0,0,0,.344-.047V9a2.107,2.107,0,0,1-.555.078.9.9,0,0,1-.73-.293,1.259,1.259,0,0,1-.246-.832V5.332h-.77V4.773h.77V3.75ZM17.918,9H17.2V4.773h.723Zm-.781-5.348a.431.431,0,0,1,.107-.3.4.4,0,0,1,.318-.121.41.41,0,0,1,.32.121.427.427,0,0,1,.109.3.413.413,0,0,1-.109.293.417.417,0,0,1-.32.117.411.411,0,0,1-.318-.117A.417.417,0,0,1,17.137,3.652Zm1.762,3.2a2.476,2.476,0,0,1,.461-1.564A1.568,1.568,0,0,1,21.742,5.2V3h.723V9H21.8l-.035-.453a1.472,1.472,0,0,1-1.207.531,1.444,1.444,0,0,1-1.2-.6,2.5,2.5,0,0,1-.463-1.57Zm.723.082a1.875,1.875,0,0,0,.3,1.125.96.96,0,0,0,.82.406,1.054,1.054,0,0,0,1-.617V5.906a1.062,1.062,0,0,0-1-.6.964.964,0,0,0-.828.41A2.064,2.064,0,0,0,19.621,6.934ZM26.2,9a1.518,1.518,0,0,1-.1-.445,1.612,1.612,0,0,1-1.2.523,1.492,1.492,0,0,1-1.025-.354,1.144,1.144,0,0,1-.4-.9,1.2,1.2,0,0,1,.5-1.025,2.367,2.367,0,0,1,1.412-.365h.7V6.105a.812.812,0,0,0-.227-.6.911.911,0,0,0-.668-.225,1.054,1.054,0,0,0-.648.2.576.576,0,0,0-.262.473h-.727a1,1,0,0,1,.225-.611,1.533,1.533,0,0,1,.609-.467A2.05,2.05,0,0,1,25.23,4.7a1.671,1.671,0,0,1,1.145.365,1.318,1.318,0,0,1,.43,1.006V8.012a2.378,2.378,0,0,0,.148.926V9ZM25,8.449a1.27,1.27,0,0,0,.645-.176,1.063,1.063,0,0,0,.441-.457V6.949h-.566q-1.328,0-1.328.777a.658.658,0,0,0,.227.531A.871.871,0,0,0,25,8.449Zm2.766-1.6a2.476,2.476,0,0,1,.461-1.564A1.568,1.568,0,0,1,30.605,5.2V3h.723V9h-.664l-.035-.453a1.472,1.472,0,0,1-1.207.531,1.444,1.444,0,0,1-1.2-.6,2.5,2.5,0,0,1-.463-1.57Zm.723.082a1.875,1.875,0,0,0,.3,1.125.96.96,0,0,0,.82.406,1.054,1.054,0,0,0,1-.617V5.906a1.062,1.062,0,0,0-1-.6.964.964,0,0,0-.828.41A2.064,2.064,0,0,0,28.484,6.934Zm3.98,1.688a.453.453,0,0,1,.111-.312.424.424,0,0,1,.334-.125.437.437,0,0,1,.338.125.443.443,0,0,1,.115.313.419.419,0,0,1-.115.3.445.445,0,0,1-.338.121.4.4,0,0,1-.445-.422ZM1.629,12.313l1.859,4.641,1.859-4.641H6.32V18H5.57V15.785l.07-2.391L3.773,18H3.2L1.336,13.406l.074,2.379V18H.66V12.313ZM10.141,18a1.518,1.518,0,0,1-.1-.445,1.612,1.612,0,0,1-1.2.523,1.492,1.492,0,0,1-1.025-.354,1.144,1.144,0,0,1-.4-.9,1.2,1.2,0,0,1,.5-1.025,2.367,2.367,0,0,1,1.412-.365h.7v-.332a.812.812,0,0,0-.227-.6.911.911,0,0,0-.668-.225,1.054,1.054,0,0,0-.648.2.576.576,0,0,0-.262.473H7.5a1,1,0,0,1,.225-.611,1.533,1.533,0,0,1,.609-.467,2.05,2.05,0,0,1,.846-.172,1.671,1.671,0,0,1,1.145.365,1.318,1.318,0,0,1,.43,1.006v1.945a2.378,2.378,0,0,0,.148.926V18Zm-1.2-.551a1.27,1.27,0,0,0,.645-.176,1.063,1.063,0,0,0,.441-.457v-.867H9.461q-1.328,0-1.328.777a.658.658,0,0,0,.227.531A.871.871,0,0,0,8.941,17.449Zm3.922-4.7v1.023h.789v.559h-.789v2.624a.587.587,0,0,0,.105.381.444.444,0,0,0,.359.127,1.75,1.75,0,0,0,.344-.047V18a2.107,2.107,0,0,1-.555.078.9.9,0,0,1-.73-.293,1.259,1.259,0,0,1-.246-.832V14.332h-.77v-.559h.77V12.75Zm3.387,5.328a1.847,1.847,0,0,1-1.4-.564A2.1,2.1,0,0,1,14.313,16v-.133a2.536,2.536,0,0,1,.24-1.123,1.874,1.874,0,0,1,.672-.773,1.689,1.689,0,0,1,.936-.279,1.583,1.583,0,0,1,1.281.543,2.351,2.351,0,0,1,.457,1.555v.3H15.035A1.5,1.5,0,0,0,15.4,17.1a1.148,1.148,0,0,0,.889.385,1.259,1.259,0,0,0,.648-.156,1.629,1.629,0,0,0,.465-.414l.441.344A1.775,1.775,0,0,1,16.25,18.078Zm-.09-3.789a.964.964,0,0,0-.734.318,1.547,1.547,0,0,0-.367.893h2.117v-.055a1.376,1.376,0,0,0-.3-.854A.908.908,0,0,0,16.16,14.289Zm4.617.133a2.166,2.166,0,0,0-.355-.027.952.952,0,0,0-.965.605v3h-.723V13.773h.7l.012.488a1.125,1.125,0,0,1,1.008-.566.738.738,0,0,1,.32.055ZM22.227,18H21.5V13.773h.723Zm-.781-5.348a.431.431,0,0,1,.107-.3.4.4,0,0,1,.318-.121.41.41,0,0,1,.32.121.427.427,0,0,1,.109.3.413.413,0,0,1-.109.293.417.417,0,0,1-.32.117.411.411,0,0,1-.318-.117A.417.417,0,0,1,21.445,12.652ZM25.992,18a1.518,1.518,0,0,1-.1-.445,1.612,1.612,0,0,1-1.2.523,1.492,1.492,0,0,1-1.025-.354,1.144,1.144,0,0,1-.4-.9,1.2,1.2,0,0,1,.5-1.025,2.367,2.367,0,0,1,1.412-.365h.7v-.332a.812.812,0,0,0-.227-.6.911.911,0,0,0-.668-.225,1.054,1.054,0,0,0-.648.2.576.576,0,0,0-.262.473h-.727a1,1,0,0,1,.225-.611,1.533,1.533,0,0,1,.609-.467,2.05,2.05,0,0,1,.846-.172,1.671,1.671,0,0,1,1.145.365,1.318,1.318,0,0,1,.43,1.006v1.945a2.378,2.378,0,0,0,.148.926V18Zm-1.2-.551a1.27,1.27,0,0,0,.645-.176,1.063,1.063,0,0,0,.441-.457v-.867h-.566q-1.328,0-1.328.777a.658.658,0,0,0,.227.531A.871.871,0,0,0,24.793,17.449ZM28.52,18H27.8V12h.723Zm1.172-.379a.453.453,0,0,1,.111-.312.424.424,0,0,1,.334-.125.437.437,0,0,1,.338.125.443.443,0,0,1,.115.313.419.419,0,0,1-.115.3.445.445,0,0,1-.338.121.4.4,0,0,1-.445-.422ZM1.629,21.313l1.859,4.641,1.859-4.641H6.32V27H5.57V24.785l.07-2.391L3.773,27H3.2L1.336,22.406l.074,2.379V27H.66V21.313ZM7.34,24.848a2.5,2.5,0,0,1,.244-1.117,1.821,1.821,0,0,1,.68-.766,1.85,1.85,0,0,1,.994-.27,1.782,1.782,0,0,1,1.4.6,2.3,2.3,0,0,1,.533,1.59v.051a2.518,2.518,0,0,1-.236,1.107,1.794,1.794,0,0,1-.676.764,1.871,1.871,0,0,1-1.01.273,1.778,1.778,0,0,1-1.393-.6A2.288,2.288,0,0,1,7.34,24.9Zm.727.086a1.808,1.808,0,0,0,.326,1.129,1.105,1.105,0,0,0,1.748-.006,1.977,1.977,0,0,0,.324-1.209,1.805,1.805,0,0,0-.33-1.127,1.049,1.049,0,0,0-.877-.432,1.038,1.038,0,0,0-.863.426A1.963,1.963,0,0,0,8.066,24.934ZM12.879,27h-.723V21h.723Zm.98-2.148a2.476,2.476,0,0,1,.461-1.564A1.568,1.568,0,0,1,16.7,23.2V21h.723v6h-.664l-.035-.453a1.472,1.472,0,0,1-1.207.531,1.444,1.444,0,0,1-1.2-.6,2.5,2.5,0,0,1-.463-1.57Zm.723.082a1.875,1.875,0,0,0,.3,1.125.96.96,0,0,0,.82.406,1.054,1.054,0,0,0,1-.617V23.906a1.062,1.062,0,0,0-1-.6.964.964,0,0,0-.828.41A2.064,2.064,0,0,0,14.582,24.934ZM20.3,27.078a1.847,1.847,0,0,1-1.4-.564A2.1,2.1,0,0,1,18.363,25v-.133a2.536,2.536,0,0,1,.24-1.123,1.874,1.874,0,0,1,.672-.773,1.689,1.689,0,0,1,.936-.279,1.583,1.583,0,0,1,1.281.543,2.351,2.351,0,0,1,.457,1.555v.3H19.086a1.5,1.5,0,0,0,.365,1.01,1.148,1.148,0,0,0,.889.385,1.259,1.259,0,0,0,.648-.156,1.629,1.629,0,0,0,.465-.414l.441.344A1.775,1.775,0,0,1,20.3,27.078Zm-.09-3.789a.964.964,0,0,0-.734.318,1.547,1.547,0,0,0-.367.893h2.117v-.055a1.376,1.376,0,0,0-.3-.854A.908.908,0,0,0,20.211,23.289ZM29.25,27H28.5l-2.863-4.383V27h-.754V21.313h.754l2.871,4.4v-4.4h.746Zm1.027-2.152a2.5,2.5,0,0,1,.244-1.117,1.821,1.821,0,0,1,.68-.766,1.85,1.85,0,0,1,.994-.27,1.782,1.782,0,0,1,1.4.6,2.3,2.3,0,0,1,.533,1.59v.051a2.518,2.518,0,0,1-.236,1.107,1.794,1.794,0,0,1-.676.764,1.871,1.871,0,0,1-1.01.273,1.778,1.778,0,0,1-1.393-.6,2.288,2.288,0,0,1-.533-1.582Zm.727.086a1.808,1.808,0,0,0,.326,1.129,1.105,1.105,0,0,0,1.748-.006,1.977,1.977,0,0,0,.324-1.209,1.805,1.805,0,0,0-.33-1.127,1.049,1.049,0,0,0-.877-.432,1.038,1.038,0,0,0-.863.426A1.963,1.963,0,0,0,31,24.934Zm4.043,1.688a.453.453,0,0,1,.111-.312.424.424,0,0,1,.334-.125.437.437,0,0,1,.338.125.443.443,0,0,1,.115.313.419.419,0,0,1-.115.3.445.445,0,0,1-.338.121.4.4,0,0,1-.445-.422ZM2.746,33.7H1.41V36H.656V30.313H2.539a2.229,2.229,0,0,1,1.479.438,1.574,1.574,0,0,1,.518,1.273,1.531,1.531,0,0,1-.287.926,1.714,1.714,0,0,1-.8.59l1.336,2.414V36h-.8ZM1.41,33.086H2.563a1.3,1.3,0,0,0,.889-.29.979.979,0,0,0,.33-.775,1.031,1.031,0,0,0-.314-.81,1.332,1.332,0,0,0-.908-.286H1.41Zm5.816,2.992a1.847,1.847,0,0,1-1.4-.564A2.1,2.1,0,0,1,5.289,34v-.133a2.536,2.536,0,0,1,.24-1.123,1.874,1.874,0,0,1,.672-.773,1.689,1.689,0,0,1,.936-.279,1.583,1.583,0,0,1,1.281.543,2.351,2.351,0,0,1,.457,1.555v.3H6.012a1.5,1.5,0,0,0,.365,1.01,1.148,1.148,0,0,0,.889.385,1.259,1.259,0,0,0,.648-.156,1.629,1.629,0,0,0,.465-.414l.441.344A1.775,1.775,0,0,1,7.227,36.078Zm-.09-3.789a.964.964,0,0,0-.734.318,1.547,1.547,0,0,0-.367.893H8.152v-.055a1.376,1.376,0,0,0-.3-.854A.908.908,0,0,0,7.137,32.289ZM10.066,36V32.332H9.4v-.559h.668V31.34a1.439,1.439,0,0,1,.363-1.051,1.372,1.372,0,0,1,1.027-.371,1.908,1.908,0,0,1,.5.066l-.039.582a2.075,2.075,0,0,0-.391-.035.705.705,0,0,0-.543.206.834.834,0,0,0-.191.59v.447h.9v.559h-.9V36Zm4.082.078a1.847,1.847,0,0,1-1.4-.564A2.1,2.1,0,0,1,12.211,34v-.133a2.536,2.536,0,0,1,.24-1.123,1.874,1.874,0,0,1,.672-.773,1.689,1.689,0,0,1,.936-.279,1.583,1.583,0,0,1,1.281.543,2.351,2.351,0,0,1,.457,1.555v.3H12.934A1.5,1.5,0,0,0,13.3,35.1a1.148,1.148,0,0,0,.889.385,1.259,1.259,0,0,0,.648-.156,1.629,1.629,0,0,0,.465-.414l.441.344A1.775,1.775,0,0,1,14.148,36.078Zm-.09-3.789a.964.964,0,0,0-.734.318,1.547,1.547,0,0,0-.367.893h2.117v-.055a1.376,1.376,0,0,0-.3-.854A.908.908,0,0,0,14.059,32.289Zm4.617.133a2.165,2.165,0,0,0-.355-.027.952.952,0,0,0-.965.605v3h-.723V31.773h.7l.012.488a1.125,1.125,0,0,1,1.008-.566.738.738,0,0,1,.32.055Zm2.344,3.656a1.847,1.847,0,0,1-1.4-.564A2.1,2.1,0,0,1,19.082,34v-.133a2.536,2.536,0,0,1,.24-1.123,1.874,1.874,0,0,1,.672-.773,1.689,1.689,0,0,1,.936-.279,1.583,1.583,0,0,1,1.281.543,2.351,2.351,0,0,1,.457,1.555v.3H19.8a1.5,1.5,0,0,0,.365,1.01,1.148,1.148,0,0,0,.889.385,1.259,1.259,0,0,0,.648-.156,1.629,1.629,0,0,0,.465-.414l.441.344A1.775,1.775,0,0,1,21.02,36.078Zm-.09-3.789a.964.964,0,0,0-.734.318,1.547,1.547,0,0,0-.367.893h2.117v-.055a1.376,1.376,0,0,0-.3-.854A.908.908,0,0,0,20.93,32.289Zm3.258-.516.023.531a1.54,1.54,0,0,1,1.266-.609q1.34,0,1.352,1.512V36h-.723V33.2a.973.973,0,0,0-.209-.676.837.837,0,0,0-.639-.219,1.043,1.043,0,0,0-.617.188,1.273,1.273,0,0,0-.414.492V36H23.5V31.773Zm5.426,3.715a1.041,1.041,0,0,0,.676-.234.825.825,0,0,0,.32-.586h.684a1.31,1.31,0,0,1-.25.691,1.647,1.647,0,0,1-.615.523,1.775,1.775,0,0,1-.814.2A1.741,1.741,0,0,1,28.24,35.5a2.3,2.3,0,0,1-.51-1.576V33.8a2.545,2.545,0,0,1,.227-1.1,1.726,1.726,0,0,1,.65-.746,1.848,1.848,0,0,1,1-.266,1.7,1.7,0,0,1,1.182.426,1.522,1.522,0,0,1,.5,1.105h-.684a1,1,0,0,0-.311-.674.966.966,0,0,0-.689-.264,1.011,1.011,0,0,0-.854.4,1.862,1.862,0,0,0-.3,1.146v.137a1.825,1.825,0,0,0,.3,1.125A1.016,1.016,0,0,0,29.613,35.488ZM32.891,36h-.723V31.773h.723Zm-.781-5.348a.431.431,0,0,1,.107-.3.4.4,0,0,1,.318-.121.41.41,0,0,1,.32.121.427.427,0,0,1,.109.3.413.413,0,0,1-.109.293.417.417,0,0,1-.32.117.411.411,0,0,1-.318-.117A.417.417,0,0,1,32.109,30.652ZM36.656,36a1.518,1.518,0,0,1-.1-.445,1.612,1.612,0,0,1-1.2.523,1.492,1.492,0,0,1-1.025-.354,1.144,1.144,0,0,1-.4-.9,1.2,1.2,0,0,1,.5-1.025,2.367,2.367,0,0,1,1.412-.365h.7v-.332a.812.812,0,0,0-.227-.6.911.911,0,0,0-.668-.225,1.054,1.054,0,0,0-.648.2.576.576,0,0,0-.262.473h-.727a1,1,0,0,1,.225-.611,1.533,1.533,0,0,1,.609-.467,2.05,2.05,0,0,1,.846-.172,1.671,1.671,0,0,1,1.145.365,1.318,1.318,0,0,1,.43,1.006v1.945a2.378,2.378,0,0,0,.148.926V36Zm-1.2-.551a1.27,1.27,0,0,0,.645-.176,1.063,1.063,0,0,0,.441-.457v-.867h-.566q-1.328,0-1.328.777a.658.658,0,0,0,.227.531A.871.871,0,0,0,35.457,35.449Zm2.957.172a.453.453,0,0,1,.111-.312.424.424,0,0,1,.334-.125.437.437,0,0,1,.338.125.443.443,0,0,1,.115.313.419.419,0,0,1-.115.3.445.445,0,0,1-.338.121.4.4,0,0,1-.445-.422Z" transform="translate(705 10906.75)" fill="#4b1c16"/>
    <text id="Costura" transform="translate(800.064 10807.572)" fill="#4b1c16" font-size="8" font-family="Roboto-Regular, Roboto"><tspan x="-13.91" y="0">Costura</tspan></text>
    <text id="Costura-2" data-name="Costura" transform="translate(800.064 11375.428)" fill="#4b1c16" font-size="8" font-family="Roboto-Regular, Roboto"><tspan x="-13.91" y="0">Costura</tspan></text>
    <path id="Trazado_895159" data-name="Trazado 895159" d="M-9.066-1.8A2.092,2.092,0,0,1-9.732-.412a2.183,2.183,0,0,1-1.49.49,2,2,0,0,1-1.615-.723,2.907,2.907,0,0,1-.607-1.934v-.547a3.241,3.241,0,0,1,.283-1.395,2.115,2.115,0,0,1,.8-.924,2.235,2.235,0,0,1,1.2-.322A2.055,2.055,0,0,1-9.7-5.26a2.118,2.118,0,0,1,.637,1.4H-9.82a1.634,1.634,0,0,0-.424-.987,1.282,1.282,0,0,0-.912-.306,1.342,1.342,0,0,0-1.127.532,2.441,2.441,0,0,0-.408,1.513v.551A2.509,2.509,0,0,0-12.3-1.082a1.25,1.25,0,0,0,1.082.547,1.443,1.443,0,0,0,.959-.283A1.572,1.572,0,0,0-9.82-1.8Zm.719-.348A2.5,2.5,0,0,1-8.1-3.27a1.821,1.821,0,0,1,.68-.766A1.85,1.85,0,0,1-6.43-4.3a1.782,1.782,0,0,1,1.4.6A2.3,2.3,0,0,1-4.5-2.117v.051A2.518,2.518,0,0,1-4.736-.959,1.794,1.794,0,0,1-5.412-.2a1.871,1.871,0,0,1-1.01.273,1.778,1.778,0,0,1-1.393-.6A2.288,2.288,0,0,1-8.348-2.1Zm.727.086A1.808,1.808,0,0,0-7.295-.937a1.044,1.044,0,0,0,.873.426,1.038,1.038,0,0,0,.875-.432,1.977,1.977,0,0,0,.324-1.209,1.805,1.805,0,0,0-.33-1.127,1.049,1.049,0,0,0-.877-.432,1.038,1.038,0,0,0-.863.426A1.963,1.963,0,0,0-7.621-2.066Zm6.488.945a.532.532,0,0,0-.221-.455,2.124,2.124,0,0,0-.77-.279,3.638,3.638,0,0,1-.871-.281,1.239,1.239,0,0,1-.477-.391.934.934,0,0,1-.154-.539,1.1,1.1,0,0,1,.439-.879A1.716,1.716,0,0,1-2.062-4.3,1.766,1.766,0,0,1-.9-3.934a1.179,1.179,0,0,1,.447.949h-.727A.652.652,0,0,0-1.428-3.5a.944.944,0,0,0-.635-.215.988.988,0,0,0-.617.172A.541.541,0,0,0-2.9-3.09.438.438,0,0,0-2.7-2.7a2.547,2.547,0,0,0,.748.254,3.9,3.9,0,0,1,.877.289,1.279,1.279,0,0,1,.5.4.994.994,0,0,1,.162.576,1.082,1.082,0,0,1-.453.908A1.9,1.9,0,0,1-2.039.078a2.128,2.128,0,0,1-.9-.18,1.461,1.461,0,0,1-.611-.5,1.21,1.21,0,0,1-.221-.7h.723a.748.748,0,0,0,.291.576,1.129,1.129,0,0,0,.717.213,1.165,1.165,0,0,0,.658-.166A.51.51,0,0,0-1.133-1.121ZM1.512-5.25v1.023H2.3v.559H1.512v2.624a.587.587,0,0,0,.105.381.444.444,0,0,0,.359.127A1.75,1.75,0,0,0,2.32-.582V0a2.107,2.107,0,0,1-.555.078.9.9,0,0,1-.73-.293,1.259,1.259,0,0,1-.246-.832V-3.668H.02v-.559h.77V-5.25ZM5.754-.418a1.535,1.535,0,0,1-1.238.5A1.314,1.314,0,0,1,3.486-.314a1.7,1.7,0,0,1-.357-1.162v-2.75h.723V-1.5q0,.961.781.961a1.082,1.082,0,0,0,1.1-.617V-4.227h.723V0H5.77ZM9.6-3.578a2.166,2.166,0,0,0-.355-.027A.952.952,0,0,0,8.277-3V0H7.555V-4.227h.7l.012.488A1.125,1.125,0,0,1,9.277-4.3a.738.738,0,0,1,.32.055ZM12.715,0a1.518,1.518,0,0,1-.1-.445,1.612,1.612,0,0,1-1.2.523,1.492,1.492,0,0,1-1.025-.354,1.144,1.144,0,0,1-.4-.9,1.2,1.2,0,0,1,.5-1.025A2.367,2.367,0,0,1,11.9-2.562h.7v-.332a.812.812,0,0,0-.227-.6.911.911,0,0,0-.668-.225,1.054,1.054,0,0,0-.648.2.576.576,0,0,0-.262.473H10.07a1,1,0,0,1,.225-.611,1.533,1.533,0,0,1,.609-.467A2.05,2.05,0,0,1,11.75-4.3a1.671,1.671,0,0,1,1.145.365,1.318,1.318,0,0,1,.43,1.006V-.988a2.378,2.378,0,0,0,.148.926V0Zm-1.2-.551a1.27,1.27,0,0,0,.645-.176,1.063,1.063,0,0,0,.441-.457v-.867h-.566q-1.328,0-1.328.777a.658.658,0,0,0,.227.531A.871.871,0,0,0,11.516-.551Z" transform="translate(608 10921.75) rotate(-90)" fill="#4b1c16"/>
    <path id="Trazado_895160" data-name="Trazado 895160" d="M-9.066-1.8A2.092,2.092,0,0,1-9.732-.412a2.183,2.183,0,0,1-1.49.49,2,2,0,0,1-1.615-.723,2.907,2.907,0,0,1-.607-1.934v-.547a3.241,3.241,0,0,1,.283-1.395,2.115,2.115,0,0,1,.8-.924,2.235,2.235,0,0,1,1.2-.322A2.055,2.055,0,0,1-9.7-5.26a2.118,2.118,0,0,1,.637,1.4H-9.82a1.634,1.634,0,0,0-.424-.987,1.282,1.282,0,0,0-.912-.306,1.342,1.342,0,0,0-1.127.532,2.441,2.441,0,0,0-.408,1.513v.551A2.509,2.509,0,0,0-12.3-1.082a1.25,1.25,0,0,0,1.082.547,1.443,1.443,0,0,0,.959-.283A1.572,1.572,0,0,0-9.82-1.8Zm.719-.348A2.5,2.5,0,0,1-8.1-3.27a1.821,1.821,0,0,1,.68-.766A1.85,1.85,0,0,1-6.43-4.3a1.782,1.782,0,0,1,1.4.6A2.3,2.3,0,0,1-4.5-2.117v.051A2.518,2.518,0,0,1-4.736-.959,1.794,1.794,0,0,1-5.412-.2a1.871,1.871,0,0,1-1.01.273,1.778,1.778,0,0,1-1.393-.6A2.288,2.288,0,0,1-8.348-2.1Zm.727.086A1.808,1.808,0,0,0-7.295-.937a1.044,1.044,0,0,0,.873.426,1.038,1.038,0,0,0,.875-.432,1.977,1.977,0,0,0,.324-1.209,1.805,1.805,0,0,0-.33-1.127,1.049,1.049,0,0,0-.877-.432,1.038,1.038,0,0,0-.863.426A1.963,1.963,0,0,0-7.621-2.066Zm6.488.945a.532.532,0,0,0-.221-.455,2.124,2.124,0,0,0-.77-.279,3.638,3.638,0,0,1-.871-.281,1.239,1.239,0,0,1-.477-.391.934.934,0,0,1-.154-.539,1.1,1.1,0,0,1,.439-.879A1.716,1.716,0,0,1-2.062-4.3,1.766,1.766,0,0,1-.9-3.934a1.179,1.179,0,0,1,.447.949h-.727A.652.652,0,0,0-1.428-3.5a.944.944,0,0,0-.635-.215.988.988,0,0,0-.617.172A.541.541,0,0,0-2.9-3.09.438.438,0,0,0-2.7-2.7a2.547,2.547,0,0,0,.748.254,3.9,3.9,0,0,1,.877.289,1.279,1.279,0,0,1,.5.4.994.994,0,0,1,.162.576,1.082,1.082,0,0,1-.453.908A1.9,1.9,0,0,1-2.039.078a2.128,2.128,0,0,1-.9-.18,1.461,1.461,0,0,1-.611-.5,1.21,1.21,0,0,1-.221-.7h.723a.748.748,0,0,0,.291.576,1.129,1.129,0,0,0,.717.213,1.165,1.165,0,0,0,.658-.166A.51.51,0,0,0-1.133-1.121ZM1.512-5.25v1.023H2.3v.559H1.512v2.624a.587.587,0,0,0,.105.381.444.444,0,0,0,.359.127A1.75,1.75,0,0,0,2.32-.582V0a2.107,2.107,0,0,1-.555.078.9.9,0,0,1-.73-.293,1.259,1.259,0,0,1-.246-.832V-3.668H.02v-.559h.77V-5.25ZM5.754-.418a1.535,1.535,0,0,1-1.238.5A1.314,1.314,0,0,1,3.486-.314a1.7,1.7,0,0,1-.357-1.162v-2.75h.723V-1.5q0,.961.781.961a1.082,1.082,0,0,0,1.1-.617V-4.227h.723V0H5.77ZM9.6-3.578a2.166,2.166,0,0,0-.355-.027A.952.952,0,0,0,8.277-3V0H7.555V-4.227h.7l.012.488A1.125,1.125,0,0,1,9.277-4.3a.738.738,0,0,1,.32.055ZM12.715,0a1.518,1.518,0,0,1-.1-.445,1.612,1.612,0,0,1-1.2.523,1.492,1.492,0,0,1-1.025-.354,1.144,1.144,0,0,1-.4-.9,1.2,1.2,0,0,1,.5-1.025A2.367,2.367,0,0,1,11.9-2.562h.7v-.332a.812.812,0,0,0-.227-.6.911.911,0,0,0-.668-.225,1.054,1.054,0,0,0-.648.2.576.576,0,0,0-.262.473H10.07a1,1,0,0,1,.225-.611,1.533,1.533,0,0,1,.609-.467A2.05,2.05,0,0,1,11.75-4.3a1.671,1.671,0,0,1,1.145.365,1.318,1.318,0,0,1,.43,1.006V-.988a2.378,2.378,0,0,0,.148.926V0Zm-1.2-.551a1.27,1.27,0,0,0,.645-.176,1.063,1.063,0,0,0,.441-.457v-.867h-.566q-1.328,0-1.328.777a.658.658,0,0,0,.227.531A.871.871,0,0,0,11.516-.551Z" transform="translate(608 11242.75) rotate(-90)" fill="#4b1c16"/>
    <path id="Trazado_895149" data-name="Trazado 895149" d="M-9.066-1.8A2.092,2.092,0,0,1-9.732-.412a2.183,2.183,0,0,1-1.49.49,2,2,0,0,1-1.615-.723,2.907,2.907,0,0,1-.607-1.934v-.547a3.241,3.241,0,0,1,.283-1.395,2.115,2.115,0,0,1,.8-.924,2.235,2.235,0,0,1,1.2-.322A2.055,2.055,0,0,1-9.7-5.26a2.118,2.118,0,0,1,.637,1.4H-9.82a1.634,1.634,0,0,0-.424-.987,1.282,1.282,0,0,0-.912-.306,1.342,1.342,0,0,0-1.127.532,2.441,2.441,0,0,0-.408,1.513v.551A2.509,2.509,0,0,0-12.3-1.082a1.25,1.25,0,0,0,1.082.547,1.443,1.443,0,0,0,.959-.283A1.572,1.572,0,0,0-9.82-1.8Zm.719-.348A2.5,2.5,0,0,1-8.1-3.27a1.821,1.821,0,0,1,.68-.766A1.85,1.85,0,0,1-6.43-4.3a1.782,1.782,0,0,1,1.4.6A2.3,2.3,0,0,1-4.5-2.117v.051A2.518,2.518,0,0,1-4.736-.959,1.794,1.794,0,0,1-5.412-.2a1.871,1.871,0,0,1-1.01.273,1.778,1.778,0,0,1-1.393-.6A2.288,2.288,0,0,1-8.348-2.1Zm.727.086A1.808,1.808,0,0,0-7.295-.937a1.044,1.044,0,0,0,.873.426,1.038,1.038,0,0,0,.875-.432,1.977,1.977,0,0,0,.324-1.209,1.805,1.805,0,0,0-.33-1.127,1.049,1.049,0,0,0-.877-.432,1.038,1.038,0,0,0-.863.426A1.963,1.963,0,0,0-7.621-2.066Zm6.488.945a.532.532,0,0,0-.221-.455,2.124,2.124,0,0,0-.77-.279,3.638,3.638,0,0,1-.871-.281,1.239,1.239,0,0,1-.477-.391.934.934,0,0,1-.154-.539,1.1,1.1,0,0,1,.439-.879A1.716,1.716,0,0,1-2.062-4.3,1.766,1.766,0,0,1-.9-3.934a1.179,1.179,0,0,1,.447.949h-.727A.652.652,0,0,0-1.428-3.5a.944.944,0,0,0-.635-.215.988.988,0,0,0-.617.172A.541.541,0,0,0-2.9-3.09.438.438,0,0,0-2.7-2.7a2.547,2.547,0,0,0,.748.254,3.9,3.9,0,0,1,.877.289,1.279,1.279,0,0,1,.5.4.994.994,0,0,1,.162.576,1.082,1.082,0,0,1-.453.908A1.9,1.9,0,0,1-2.039.078a2.128,2.128,0,0,1-.9-.18,1.461,1.461,0,0,1-.611-.5,1.21,1.21,0,0,1-.221-.7h.723a.748.748,0,0,0,.291.576,1.129,1.129,0,0,0,.717.213,1.165,1.165,0,0,0,.658-.166A.51.51,0,0,0-1.133-1.121ZM1.512-5.25v1.023H2.3v.559H1.512v2.624a.587.587,0,0,0,.105.381.444.444,0,0,0,.359.127A1.75,1.75,0,0,0,2.32-.582V0a2.107,2.107,0,0,1-.555.078.9.9,0,0,1-.73-.293,1.259,1.259,0,0,1-.246-.832V-3.668H.02v-.559h.77V-5.25ZM5.754-.418a1.535,1.535,0,0,1-1.238.5A1.314,1.314,0,0,1,3.486-.314a1.7,1.7,0,0,1-.357-1.162v-2.75h.723V-1.5q0,.961.781.961a1.082,1.082,0,0,0,1.1-.617V-4.227h.723V0H5.77ZM9.6-3.578a2.166,2.166,0,0,0-.355-.027A.952.952,0,0,0,8.277-3V0H7.555V-4.227h.7l.012.488A1.125,1.125,0,0,1,9.277-4.3a.738.738,0,0,1,.32.055ZM12.715,0a1.518,1.518,0,0,1-.1-.445,1.612,1.612,0,0,1-1.2.523,1.492,1.492,0,0,1-1.025-.354,1.144,1.144,0,0,1-.4-.9,1.2,1.2,0,0,1,.5-1.025A2.367,2.367,0,0,1,11.9-2.562h.7v-.332a.812.812,0,0,0-.227-.6.911.911,0,0,0-.668-.225,1.054,1.054,0,0,0-.648.2.576.576,0,0,0-.262.473H10.07a1,1,0,0,1,.225-.611,1.533,1.533,0,0,1,.609-.467A2.05,2.05,0,0,1,11.75-4.3a1.671,1.671,0,0,1,1.145.365,1.318,1.318,0,0,1,.43,1.006V-.988a2.378,2.378,0,0,0,.148.926V0Zm-1.2-.551a1.27,1.27,0,0,0,.645-.176,1.063,1.063,0,0,0,.441-.457v-.867h-.566q-1.328,0-1.328.777a.658.658,0,0,0,.227.531A.871.871,0,0,0,11.516-.551Z" transform="translate(992 10921.75) rotate(90)" fill="#4b1c16"/>
    <path id="Trazado_895154" data-name="Trazado 895154" d="M-9.066-1.8A2.092,2.092,0,0,1-9.732-.412a2.183,2.183,0,0,1-1.49.49,2,2,0,0,1-1.615-.723,2.907,2.907,0,0,1-.607-1.934v-.547a3.241,3.241,0,0,1,.283-1.395,2.115,2.115,0,0,1,.8-.924,2.235,2.235,0,0,1,1.2-.322A2.055,2.055,0,0,1-9.7-5.26a2.118,2.118,0,0,1,.637,1.4H-9.82a1.634,1.634,0,0,0-.424-.987,1.282,1.282,0,0,0-.912-.306,1.342,1.342,0,0,0-1.127.532,2.441,2.441,0,0,0-.408,1.513v.551A2.509,2.509,0,0,0-12.3-1.082a1.25,1.25,0,0,0,1.082.547,1.443,1.443,0,0,0,.959-.283A1.572,1.572,0,0,0-9.82-1.8Zm.719-.348A2.5,2.5,0,0,1-8.1-3.27a1.821,1.821,0,0,1,.68-.766A1.85,1.85,0,0,1-6.43-4.3a1.782,1.782,0,0,1,1.4.6A2.3,2.3,0,0,1-4.5-2.117v.051A2.518,2.518,0,0,1-4.736-.959,1.794,1.794,0,0,1-5.412-.2a1.871,1.871,0,0,1-1.01.273,1.778,1.778,0,0,1-1.393-.6A2.288,2.288,0,0,1-8.348-2.1Zm.727.086A1.808,1.808,0,0,0-7.295-.937a1.044,1.044,0,0,0,.873.426,1.038,1.038,0,0,0,.875-.432,1.977,1.977,0,0,0,.324-1.209,1.805,1.805,0,0,0-.33-1.127,1.049,1.049,0,0,0-.877-.432,1.038,1.038,0,0,0-.863.426A1.963,1.963,0,0,0-7.621-2.066Zm6.488.945a.532.532,0,0,0-.221-.455,2.124,2.124,0,0,0-.77-.279,3.638,3.638,0,0,1-.871-.281,1.239,1.239,0,0,1-.477-.391.934.934,0,0,1-.154-.539,1.1,1.1,0,0,1,.439-.879A1.716,1.716,0,0,1-2.062-4.3,1.766,1.766,0,0,1-.9-3.934a1.179,1.179,0,0,1,.447.949h-.727A.652.652,0,0,0-1.428-3.5a.944.944,0,0,0-.635-.215.988.988,0,0,0-.617.172A.541.541,0,0,0-2.9-3.09.438.438,0,0,0-2.7-2.7a2.547,2.547,0,0,0,.748.254,3.9,3.9,0,0,1,.877.289,1.279,1.279,0,0,1,.5.4.994.994,0,0,1,.162.576,1.082,1.082,0,0,1-.453.908A1.9,1.9,0,0,1-2.039.078a2.128,2.128,0,0,1-.9-.18,1.461,1.461,0,0,1-.611-.5,1.21,1.21,0,0,1-.221-.7h.723a.748.748,0,0,0,.291.576,1.129,1.129,0,0,0,.717.213,1.165,1.165,0,0,0,.658-.166A.51.51,0,0,0-1.133-1.121ZM1.512-5.25v1.023H2.3v.559H1.512v2.624a.587.587,0,0,0,.105.381.444.444,0,0,0,.359.127A1.75,1.75,0,0,0,2.32-.582V0a2.107,2.107,0,0,1-.555.078.9.9,0,0,1-.73-.293,1.259,1.259,0,0,1-.246-.832V-3.668H.02v-.559h.77V-5.25ZM5.754-.418a1.535,1.535,0,0,1-1.238.5A1.314,1.314,0,0,1,3.486-.314a1.7,1.7,0,0,1-.357-1.162v-2.75h.723V-1.5q0,.961.781.961a1.082,1.082,0,0,0,1.1-.617V-4.227h.723V0H5.77ZM9.6-3.578a2.166,2.166,0,0,0-.355-.027A.952.952,0,0,0,8.277-3V0H7.555V-4.227h.7l.012.488A1.125,1.125,0,0,1,9.277-4.3a.738.738,0,0,1,.32.055ZM12.715,0a1.518,1.518,0,0,1-.1-.445,1.612,1.612,0,0,1-1.2.523,1.492,1.492,0,0,1-1.025-.354,1.144,1.144,0,0,1-.4-.9,1.2,1.2,0,0,1,.5-1.025A2.367,2.367,0,0,1,11.9-2.562h.7v-.332a.812.812,0,0,0-.227-.6.911.911,0,0,0-.668-.225,1.054,1.054,0,0,0-.648.2.576.576,0,0,0-.262.473H10.07a1,1,0,0,1,.225-.611,1.533,1.533,0,0,1,.609-.467A2.05,2.05,0,0,1,11.75-4.3a1.671,1.671,0,0,1,1.145.365,1.318,1.318,0,0,1,.43,1.006V-.988a2.378,2.378,0,0,0,.148.926V0Zm-1.2-.551a1.27,1.27,0,0,0,.645-.176,1.063,1.063,0,0,0,.441-.457v-.867h-.566q-1.328,0-1.328.777a.658.658,0,0,0,.227.531A.871.871,0,0,0,11.516-.551Z" transform="translate(992 11242.75) rotate(90)" fill="#4b1c16"/>
  </g>
</svg>
