<svg xmlns="http://www.w3.org/2000/svg" width="609" height="446.521" viewBox="0 0 609 446.521">
  <g id="Grupo_1106464" data-name="Grupo 1106464" transform="translate(-599.514 -6486.643)">
    <path id="Unión_15" data-name="Unión 15" d="M59.647,446.521V388.293H0V0H578.163V388.293H518.515v58.228Z" transform="translate(600.147 6486.643)" fill="#ebe6e6"/>
    <line id="Línea_661" data-name="Línea 661" y2="365.174" transform="translate(612.081 6498)" fill="none" stroke="#dad0cf" stroke-width="1"/>
    <line id="Línea_669" data-name="Línea 669" y2="365.174" transform="translate(671.343 6498)" fill="none" stroke="#dad0cf" stroke-width="1"/>
    <line id="Línea_670" data-name="Línea 670" y2="365.174" transform="translate(1106.41 6498)" fill="none" stroke="#dad0cf" stroke-width="1"/>
    <line id="Línea_666" data-name="Línea 666" y2="58.748" transform="translate(671.343 6863.688)" fill="none" stroke="#dad0cf" stroke-width="1"/>
    <line id="Línea_667" data-name="Línea 667" y2="58.748" transform="translate(1106.41 6863.688)" fill="none" stroke="#dad0cf" stroke-width="1"/>
    <line id="Línea_663" data-name="Línea 663" x1="555.036" transform="translate(612.081 6498)" fill="none" stroke="#dad0cf" stroke-width="1"/>
    <line id="Línea_671" data-name="Línea 671" x1="435.067" transform="translate(671.343 6862.66)" fill="none" stroke="#dad0cf" stroke-width="1"/>
    <line id="Línea_672" data-name="Línea 672" x1="11.934" transform="translate(600.147 6498)" fill="none" stroke="#dad0cf" stroke-width="1"/>
    <line id="Línea_673" data-name="Línea 673" x1="11.934" transform="translate(1166.375 6498)" fill="none" stroke="#dad0cf" stroke-width="1"/>
    <line id="Línea_664" data-name="Línea 664" x1="59.262" transform="translate(612.081 6863.173)" fill="none" stroke="#dad0cf" stroke-width="1"/>
    <line id="Línea_665" data-name="Línea 665" x1="60.707" transform="translate(1106.41 6863.173)" fill="none" stroke="#dad0cf" stroke-width="1"/>
    <line id="Línea_668" data-name="Línea 668" x1="435.067" transform="translate(671.343 6922.435)" fill="none" stroke="#dad0cf" stroke-width="1"/>
    <line id="Línea_662" data-name="Línea 662" y2="365.174" transform="translate(1167.117 6498)" fill="none" stroke="#dad0cf" stroke-width="1"/>
    <text id="_4_cm" data-name="4 cm" transform="translate(1204.514 6528.006) rotate(-90)" fill="#4b1c16" font-size="15" font-family="Roboto-Regular, Roboto"><tspan x="-16.567" y="0">4 cm</tspan></text>
    <text id="Línea_para_porta_cierre_o_falso_interno" data-name="Línea para porta cierre o falso interno" transform="translate(865.514 6544.006)" fill="#4b1c16" font-size="16" font-family="Roboto-Regular, Roboto"><tspan x="-132.984" y="0">Línea para porta cierre o falso interno</tspan></text>
    <line id="Línea_674" data-name="Línea 674" x2="18.419" transform="translate(1178.309 6498)" fill="none" stroke="#655647" stroke-width="1"/>
    <line id="Línea_676" data-name="Línea 676" y2="56.379" transform="translate(1185.351 6498)" fill="none" stroke="#655647" stroke-width="1"/>
    <g id="Rectángulo_402057" data-name="Rectángulo 402057" transform="translate(611.514 6497.006)" fill="none" stroke="#b6a3a1" stroke-width="1">
      <rect width="557" height="58" stroke="none"/>
      <rect x="0.5" y="0.5" width="556" height="57" fill="none"/>
    </g>
    <g id="Rectángulo_402058" data-name="Rectángulo 402058" transform="translate(599.514 6487.006)" fill="none" stroke="#b6a3a1" stroke-width="1">
      <rect width="579" height="82" stroke="none"/>
      <rect x="0.5" y="0.5" width="578" height="81" fill="none"/>
    </g>
    <line id="Línea_677" data-name="Línea 677" x2="596.21" transform="translate(600.518 6554.371)" fill="none" stroke="#655647" stroke-width="1"/>
    <g id="XMLID_1022_" transform="translate(628.504 6549.962)">
      <g id="XMLID_12_" transform="translate(0.516 0.515)">
        <g id="XMLID_1174_" transform="translate(6.76 3.941)">
          <path id="XMLID_291_" d="M148.054,152.487v2.66a1.871,1.871,0,0,1-1.376,1.8l-5.658,1.55Z" transform="translate(-141.019 -152.487)" fill="#ebe6e6"/>
        </g>
        <g id="XMLID_1173_">
          <g id="XMLID_1176_" transform="translate(0 10.218)">
            <path id="XMLID_290_" d="M15.843,274.146,10,282.491a10.313,10.313,0,0,0,6.507-4.213,2.691,2.691,0,0,0,.331-2.445v0Z" transform="translate(-10 -274.146)" fill="#fff"/>
          </g>
          <g id="XMLID_1177_" transform="translate(5.697)">
            <path id="XMLID_289_" d="M128.6,76.255l1.061.743a.809.809,0,0,1,.2,1.127L122.943,88a.809.809,0,0,1-1.127.2l-1.061-.743a.809.809,0,0,1-.2-1.127l6.913-9.873A.809.809,0,0,1,128.6,76.255Z" transform="translate(-120.41 -76.108)" fill="#4b1c16"/>
          </g>
          <g id="XMLID_1059_" transform="translate(5.127 3.043)">
            <path id="XMLID_288_" d="M129.62,140.81a20.919,20.919,0,0,1-5.852-3.6l-.423-.368a7.119,7.119,0,0,0-4.674-1.749l-.628,1v2.554a1.871,1.871,0,0,1-1.376,1.8l-5.658,1.55a2.35,2.35,0,0,0-1.633,2.14,1.921,1.921,0,0,0,2.235,1.67l4.325-.748a3.572,3.572,0,0,1,3.049.9,9.763,9.763,0,0,0,6.69,2.639h3.958Z" transform="translate(-109.376 -135.096)" fill="#ebe6e6"/>
          </g>
        </g>
        <g id="XMLID_1199_" transform="translate(4.966 12.981)">
          <path id="XMLID_176_" d="M113.189,327.706l-4.551,4.154a1.422,1.422,0,0,1-2.381-1.044L108.1,328.5Z" transform="translate(-106.257 -327.706)" fill="#ebe6e6"/>
        </g>
        <g id="XMLID_1545_" transform="translate(2.314 3.238)">
          <path id="XMLID_168_" d="M63.265,138.863l-5.831,8.325a1.422,1.422,0,0,1-2.33-1.632l2.581-3.71A6.957,6.957,0,0,1,63.265,138.863Z" transform="translate(-54.846 -138.863)" fill="#ebe6e6"/>
        </g>
      </g>
      <g id="XMLID_292_" transform="translate(0 0)">
        <path id="XMLID_293_" d="M414.077,194.669a21.461,21.461,0,0,0,4.118,2.226.516.516,0,0,0,.389-.956,20.435,20.435,0,0,1-3.919-2.119.516.516,0,0,0-.587.849Z" transform="translate(-392.501 -187.145)" fill="#12263f"/>
        <path id="XMLID_294_" d="M378.836,167.147a.516.516,0,1,0-.365-.151A.518.518,0,0,0,378.836,167.147Z" transform="translate(-358.801 -160.956)" fill="#12263f"/>
        <path id="XMLID_954_" d="M25.9,82.67H21.943a9.249,9.249,0,0,1-6.337-2.5,4.107,4.107,0,0,0-3.489-1.027l-4.325.748A1.405,1.405,0,0,1,6.16,78.7a1.83,1.83,0,0,1,1.253-1.613l5.658-1.55a2.392,2.392,0,0,0,1.756-2.3v-2.5L15.2,70.2a6.64,6.64,0,0,1,2.712.7.516.516,0,1,0,.465-.921,7.674,7.674,0,0,0-2.493-.759l.193-.276a1.327,1.327,0,0,0-.325-1.846l-1.061-.743a1.327,1.327,0,0,0-1.846.325L10.97,69.367a7.494,7.494,0,0,0-5.726,3.194L2.665,76.27A1.938,1.938,0,0,0,4.012,79.3L.093,84.9a.516.516,0,0,0,.52.8A10.79,10.79,0,0,0,5.2,83.639a1.939,1.939,0,0,0,3.012.512l4.414-4.029a3.059,3.059,0,0,1,2.276.8A10.277,10.277,0,0,0,21.943,83.7H25.9a.516.516,0,1,0,0-1.032ZM13.795,73.235a1.358,1.358,0,0,1-1,1.307l-.785.215,1.782-2.545v1.023Zm-.1-5.959A.294.294,0,0,1,14.1,67.2l1.061.743a.294.294,0,0,1,.072.409l-4.782,6.829-2.841.779ZM3.511,76.86l2.581-3.71A6.461,6.461,0,0,1,10.176,70.5L4.995,77.9A.906.906,0,1,1,3.511,76.86Zm1.745,2.467a2.414,2.414,0,0,0,.837,1.132,2.463,2.463,0,0,0,.473.277,10.263,10.263,0,0,1-1.427,1.609c-.024.018.02-.022,0,0a9.927,9.927,0,0,1-3.392,1.994Zm2.259,4.062a.9.9,0,0,1-1.491-.458,10.909,10.909,0,0,0,1.421-1.651,3.2,3.2,0,0,0,.206-.338,2.493,2.493,0,0,0,.315-.033l2.8-.483Z" transform="translate(0 -66.119)" fill="#12263f"/>
      </g>
    </g>
  </g>
</svg>
