<svg xmlns="http://www.w3.org/2000/svg" width="85" height="98" viewBox="0 0 85 98">
  <g id="Grupo_1106649" data-name="Grupo 1106649" transform="translate(-180.456 -2190)">
    <rect id="Rect치ngulo_402118" data-name="Rect치ngulo 402118" width="85" height="98" transform="translate(180.456 2190)" fill="#ccaf91"/>
    <g id="cinturon_1_" data-name="cinturon (1)" transform="translate(193.456 2209)">
      <path id="Trazado_891198" data-name="Trazado 891198" d="M28,24V58a1,1,0,0,1-1,1H13a1,1,0,0,1-1-1V24l1-1H27Z" fill="#77554a"/>
      <path id="Trazado_891199" data-name="Trazado 891199" d="M11,19H29v5H11Z" fill="#dba326"/>
      <path id="Trazado_891200" data-name="Trazado 891200" d="M32,7V21a3,3,0,0,1-3,3H28V7a2,2,0,0,0-2-2H14a2,2,0,0,0-2,2V24H11a3,3,0,0,1-3-3V7a6,6,0,0,1,6-6H26a6,6,0,0,1,6,6Z" fill="#ffcc28"/>
      <path id="Trazado_891201" data-name="Trazado 891201" d="M20,5a2,2,0,0,1,2,2V19a1,1,0,0,1-1,1H19a1,1,0,0,1-1-1V7A2,2,0,0,1,20,5Z" fill="#f7bc26"/>
      <circle id="Elipse_11544" data-name="Elipse 11544" cx="2" cy="2" r="2" transform="translate(18 29)" fill="#54413d"/>
      <rect id="Rect치ngulo_402117" data-name="Rect치ngulo 402117" width="18" height="4" rx="1" transform="translate(11 38)" fill="#54413d"/>
      <path id="Trazado_891202" data-name="Trazado 891202" d="M36,21c0-10,2-20,8-20s8,10,8,20V58a1,1,0,0,1-1,1H37a1,1,0,0,1-1-1Z" fill="#77554a"/>
      <circle id="Elipse_11545" data-name="Elipse 11545" cx="2" cy="2" r="2" transform="translate(42 22)" fill="#54413d"/>
      <circle id="Elipse_11546" data-name="Elipse 11546" cx="2" cy="2" r="2" transform="translate(42 34)" fill="#54413d"/>
      <circle id="Elipse_11547" data-name="Elipse 11547" cx="2" cy="2" r="2" transform="translate(42 46)" fill="#54413d"/>
      <g id="Grupo_1106648" data-name="Grupo 1106648">
        <path id="Trazado_891203" data-name="Trazado 891203" d="M12,45a1,1,0,0,0-1,1V58a2,2,0,0,0,2,2H27a2,2,0,0,0,2-2V42.722A1.993,1.993,0,0,0,30,41V39a1.993,1.993,0,0,0-1-1.722V25a4,4,0,0,0,4-4V7a7.009,7.009,0,0,0-7-7H14A7.009,7.009,0,0,0,7,7V21a4,4,0,0,0,4,4V37.278A1.993,1.993,0,0,0,10,39v2a2,2,0,0,0,2,2H27V58H13V46A1,1,0,0,0,12,45ZM27,18H23V7a2.966,2.966,0,0,0-.184-1H26a1,1,0,0,1,1,1ZM21,7V19H19V7a1,1,0,0,1,2,0ZM17,7V18H13V7a1,1,0,0,1,1-1h3.184A2.966,2.966,0,0,0,17,7ZM13,20h4.278A1.993,1.993,0,0,0,19,21h2a1.993,1.993,0,0,0,1.722-1H27v3H13Zm0,5H27V37H13ZM9,21V7a5.006,5.006,0,0,1,5-5H26a5.006,5.006,0,0,1,5,5V21a2,2,0,0,1-2,2V7a3,3,0,0,0-3-3H14a3,3,0,0,0-3,3V23A2,2,0,0,1,9,21Zm3,18H28v2H12Z" fill="#373737"/>
        <path id="Trazado_891204" data-name="Trazado 891204" d="M20,28a3,3,0,1,0,3,3,3,3,0,0,0-3-3Zm0,4a1,1,0,1,1,1-1A1,1,0,0,1,20,32Z" fill="#373737"/>
        <path id="Trazado_891205" data-name="Trazado 891205" d="M44,21a3,3,0,1,0,3,3A3,3,0,0,0,44,21Zm0,4a1,1,0,1,1,1-1A1,1,0,0,1,44,25Z" fill="#373737"/>
        <path id="Trazado_891206" data-name="Trazado 891206" d="M44,33a3,3,0,1,0,3,3A3,3,0,0,0,44,33Zm0,4a1,1,0,1,1,1-1A1,1,0,0,1,44,37Z" fill="#373737"/>
        <path id="Trazado_891207" data-name="Trazado 891207" d="M44,45a3,3,0,1,0,3,3A3,3,0,0,0,44,45Zm0,4a1,1,0,1,1,1-1A1,1,0,0,1,44,49Z" fill="#373737"/>
        <path id="Trazado_891208" data-name="Trazado 891208" d="M53,58V21C53,7.654,49.72,0,44,0s-9,7.654-9,21V58a2,2,0,0,0,2,2H51A2,2,0,0,0,53,58ZM37,21c0-9.186,1.839-19,7-19s7,9.814,7,19V58H37Z" fill="#373737"/>
      </g>
    </g>
  </g>
</svg>
