<svg xmlns="http://www.w3.org/2000/svg" width="609.295" height="477.719" viewBox="0 0 609.295 477.719">
  <g id="Grupo_1107016" data-name="Grupo 1107016" transform="translate(-604.867 -6719.145)">
    <g id="Grupo_1106442" data-name="Grupo 1106442" transform="translate(604.867 6719.145)">
      <path id="Unión_15" data-name="Unión 15" d="M60.663,454.122V394.9H0V0H588.005V394.9H527.343v59.219Z" transform="translate(10.697 10.962)" fill="#ebe6e6"/>
      <path id="Unión_16" data-name="Unión 16" d="M60.663,454.122V394.9H0V0H588.005V394.9H527.343v59.219Z" transform="translate(10.697 11.218)" fill="none" stroke="#b6a3a1" stroke-width="12"/>
      <text id="Costura" transform="translate(18 220.564) rotate(-90)" fill="#4b1c16" font-size="19" font-family="Roboto-Regular, Roboto"><tspan x="-33.037" y="0">Costura</tspan></text>
      <text id="Costura-2" data-name="Costura" transform="translate(279.773 472.719)" fill="#4b1c16" font-size="19" font-family="Roboto-Regular, Roboto"><tspan x="-33.037" y="0">Costura</tspan></text>
      <text id="Costura-3" data-name="Costura" transform="translate(279.773 18)" fill="#4b1c16" font-size="19" font-family="Roboto-Regular, Roboto"><tspan x="-33.037" y="0">Costura</tspan></text>
      <text id="Cuerpo_frente_y_espaldar_._Cantidad:_Material:_Molde_No:_Referencia:" data-name="Cuerpo (frente y espaldar).
Cantidad:
Material:
Molde No:
Referencia:" transform="translate(134.242 163.867)" fill="#4b1c16" font-size="19" font-family="Roboto-Regular, Roboto"><tspan x="0" y="0">Cuerpo (frente y espaldar).</tspan><tspan x="0" y="23">Cantidad:</tspan><tspan x="0" y="46">Material:</tspan><tspan x="0" y="69">Molde No:</tspan><tspan x="0" y="92">Referencia:</tspan></text>
      <text id="Costura-4" data-name="Costura" transform="translate(604.295 220.564) rotate(-90)" fill="#4b1c16" font-size="19" font-family="Roboto-Regular, Roboto"><tspan x="-33.037" y="0">Costura</tspan></text>
    </g>
    <line id="Línea_658" data-name="Línea 658" y1="369.365" transform="translate(685.134 6742.196)" fill="none" stroke="#dad0cf" stroke-linecap="square" stroke-width="1"/>
    <line id="Línea_659" data-name="Línea 659" y1="369.365" transform="translate(1132.169 6742.196)" fill="none" stroke="#dad0cf" stroke-linecap="square" stroke-width="1"/>
    <line id="Línea_660" data-name="Línea 660" x1="447.035" transform="translate(684.936 7111.561)" fill="none" stroke="#dad0cf" stroke-linecap="square" stroke-width="1"/>
  </g>
</svg>
