<svg xmlns="http://www.w3.org/2000/svg" xmlns:xlink="http://www.w3.org/1999/xlink" width="354.841" height="116.537" viewBox="0 0 354.841 116.537">
  <defs>
    <clipPath id="clip-path">
      <rect id="Rectángulo_402119" data-name="Rectángulo 402119" width="354.341" height="82.02" transform="translate(0)" fill="#fff" stroke="#707070" stroke-width="1"/>
    </clipPath>
  </defs>
  <g id="Grupo_1106665" data-name="Grupo 1106665" transform="translate(-559.071 -2867)">
    <text id="_13_a_15_cm" data-name="13 a 15 cm" transform="translate(637.134 2981.537)" fill="#4b1c16" font-size="8" font-family="Roboto-Regular, Roboto"><tspan x="0" y="0">13 a 15 cm</tspan></text>
    <text id="_2.5_cm" data-name="2.5 cm" transform="translate(843.928 2875)" fill="#4b1c16" font-size="8" font-family="Roboto-Regular, Roboto"><tspan x="0" y="0">2.5 cm</tspan></text>
    <line id="Línea_719" data-name="Línea 719" y2="56.166" transform="translate(559.571 2923.829)" fill="none" stroke="#3b574d" stroke-width="1"/>
    <line id="Línea_721" data-name="Línea 721" x2="234.59" transform="translate(559.412 2972.862)" fill="none" stroke="#3b574d" stroke-width="1"/>
    <line id="Línea_724" data-name="Línea 724" x2="40.118" transform="translate(834.567 2881.481)" fill="none" stroke="#3b574d" stroke-width="1"/>
    <g id="Enmascarar_grupo_1098683" data-name="Enmascarar grupo 1098683" transform="translate(559.571 2881.481)" clip-path="url(#clip-path)">
      <g id="Grupo_1106622" data-name="Grupo 1106622" transform="translate(0 0.14)">
        <g id="Grupo_1106623" data-name="Grupo 1106623" transform="translate(0 0)">
          <path id="Trazado_891146" data-name="Trazado 891146" d="M426.7,78.446H360.546a7.225,7.225,0,0,1-7.226-7.226V7.733A7.225,7.225,0,0,1,360.546.507H426.7a7.224,7.224,0,0,1,7.222,7.226V71.22a7.224,7.224,0,0,1-7.222,7.226m.931-13.308V13.815A7.223,7.223,0,0,0,420.4,6.593H366.832a7.224,7.224,0,0,0-7.222,7.222V65.138a7.224,7.224,0,0,0,7.222,7.222H420.4a7.223,7.223,0,0,0,7.222-7.222" transform="translate(1214.417 1.237)" fill="#fff" stroke="#707070" stroke-width="1"/>
          <path id="Trazado_891147" data-name="Trazado 891147" d="M426.7,78.446H360.546a7.225,7.225,0,0,1-7.226-7.226V7.733A7.225,7.225,0,0,1,360.546.507H426.7a7.224,7.224,0,0,1,7.222,7.226V71.22A7.224,7.224,0,0,1,426.7,78.446Zm.931-13.308V13.815A7.223,7.223,0,0,0,420.4,6.593H366.832a7.224,7.224,0,0,0-7.222,7.222V65.138a7.224,7.224,0,0,0,7.222,7.222H420.4A7.223,7.223,0,0,0,427.627,65.138Z" transform="translate(1214.417 1.237)" fill="#9aa3af" stroke="#000" stroke-miterlimit="10" stroke-width="1"/>
          <path id="Trazado_891148" data-name="Trazado 891148" d="M49,34.895h0A34.468,34.468,0,0,1,83.473.428l1547.079.981V70.347L83.473,69.366A34.472,34.472,0,0,1,49,34.895M200.33,24a10.9,10.9,0,1,0,10.9,10.9A10.9,10.9,0,0,0,200.33,24m41.264,0a10.9,10.9,0,1,0,10.9,10.9,10.9,10.9,0,0,0-10.9-10.9m41.264,0a10.9,10.9,0,1,0,10.9,10.9,10.9,10.9,0,0,0-10.9-10.9m41.264,0a10.9,10.9,0,1,0,10.9,10.9,10.9,10.9,0,0,0-10.9-10.9m41.264,0a10.9,10.9,0,1,0,10.9,10.9,10.9,10.9,0,0,0-10.9-10.9" transform="translate(-49.002 4.993)" fill="#ccaf91" stroke="#707070" stroke-width="1"/>
          <path id="Trazado_891149" data-name="Trazado 891149" d="M49,34.895h0A34.468,34.468,0,0,1,83.473.428l1547.079.981V70.347L83.473,69.366A34.472,34.472,0,0,1,49,34.895ZM200.33,24a10.9,10.9,0,1,0,10.9,10.9A10.9,10.9,0,0,0,200.33,24Zm41.264,0a10.9,10.9,0,1,0,10.9,10.9A10.9,10.9,0,0,0,241.594,24Zm41.264,0a10.9,10.9,0,1,0,10.9,10.9A10.9,10.9,0,0,0,282.858,24Zm41.264,0a10.9,10.9,0,1,0,10.9,10.9A10.9,10.9,0,0,0,324.123,24Zm41.264,0a10.9,10.9,0,1,0,10.9,10.9A10.9,10.9,0,0,0,365.387,24Z" transform="translate(-49.002 4.993)" fill="none" stroke="#000" stroke-miterlimit="10" stroke-width="1"/>
          <rect id="Rectángulo_402095" data-name="Rectángulo 402095" width="26.611" height="81.739" transform="translate(1520.596 0)" fill="#8d7964" stroke="#707070" stroke-width="1"/>
          <rect id="Rectángulo_402096" data-name="Rectángulo 402096" width="26.611" height="81.739" transform="translate(1520.596 0)" fill="none" stroke="#000" stroke-miterlimit="10" stroke-width="1"/>
          <path id="Trazado_891150" data-name="Trazado 891150" d="M358.356,16.919h66.894V8.173H358.356a4.373,4.373,0,0,0,0,8.746" transform="translate(1216.793 28.544)" stroke="#707070" stroke-width="1"/>
          <path id="Trazado_891151" data-name="Trazado 891151" d="M358.356,16.919h66.894V8.173H358.356a4.373,4.373,0,0,0,0,8.746Z" transform="translate(1216.793 28.544)" fill="#9aa3af" stroke="#000" stroke-miterlimit="10" stroke-width="1"/>
          <path id="Trazado_891152" data-name="Trazado 891152" d="M364.063,1.528s-29.462,14.161-33.075,36.4c0,0-.949,17.172,33.075,32.537" transform="translate(1134.862 4.874)" fill="none" stroke="#000" stroke-miterlimit="10" stroke-width="1"/>
        </g>
      </g>
    </g>
    <line id="Línea_720" data-name="Línea 720" y2="56.166" transform="translate(793.557 2923.829)" fill="none" stroke="#3b574d" stroke-width="1"/>
    <line id="Línea_722" data-name="Línea 722" y2="49.034" transform="translate(834.567 2873.458)" fill="none" stroke="#3b574d" stroke-width="1"/>
    <line id="Línea_723" data-name="Línea 723" y2="49.034" transform="translate(874.685 2873.458)" fill="none" stroke="#3b574d" stroke-width="1"/>
  </g>
</svg>
