<svg xmlns="http://www.w3.org/2000/svg" width="821.18" height="67.56" viewBox="0 0 821.18 67.56">
  <g id="Grupo_1106659" data-name="Grupo 1106659" transform="translate(-389.776 -2517.76)">
    <text id="Talla" transform="translate(885 2583.32)" fill="#4b1c16" font-size="8" font-family="Roboto-Regular, Roboto"><tspan x="0" y="0">Talla</tspan></text>
    <g id="Grupo_1106622" data-name="Grupo 1106622" transform="translate(390 2517.984)">
      <g id="Grupo_1106623" data-name="Grupo 1106623" transform="translate(0 0)">
        <path id="Trazado_891146" data-name="Trazado 891146" d="M388.859,38.257h-32.04a3.5,3.5,0,0,1-3.5-3.5V4.007a3.5,3.5,0,0,1,3.5-3.5h32.04a3.5,3.5,0,0,1,3.5,3.5V34.756a3.5,3.5,0,0,1-3.5,3.5m.451-6.446V6.953a3.5,3.5,0,0,0-3.5-3.5H359.864a3.5,3.5,0,0,0-3.5,3.5V31.811a3.5,3.5,0,0,0,3.5,3.5h25.948a3.5,3.5,0,0,0,3.5-3.5" transform="translate(427.39 0.614)" fill="#fff" stroke="#707070" stroke-width="1"/>
        <path id="Trazado_891147" data-name="Trazado 891147" d="M388.859,38.257h-32.04a3.5,3.5,0,0,1-3.5-3.5V4.007a3.5,3.5,0,0,1,3.5-3.5h32.04a3.5,3.5,0,0,1,3.5,3.5V34.756A3.5,3.5,0,0,1,388.859,38.257Zm.451-6.446V6.953a3.5,3.5,0,0,0-3.5-3.5H359.864a3.5,3.5,0,0,0-3.5,3.5V31.811a3.5,3.5,0,0,0,3.5,3.5h25.948A3.5,3.5,0,0,0,389.31,31.811Z" transform="translate(427.39 0.614)" fill="#9aa3af" stroke="#000" stroke-miterlimit="10" stroke-width="1"/>
        <path id="Trazado_891148" data-name="Trazado 891148" d="M.125,18.222h0a16.694,16.694,0,0,1,16.7-16.694H787.249v33.39H16.821a16.7,16.7,0,0,1-16.7-16.7m94.4-5.754A5.279,5.279,0,1,0,99.8,17.747a5.278,5.278,0,0,0-5.279-5.279m19.986,0a5.279,5.279,0,1,0,5.279,5.279,5.28,5.28,0,0,0-5.279-5.279m19.986,0a5.279,5.279,0,1,0,5.279,5.279,5.28,5.28,0,0,0-5.279-5.279m19.986,0a5.279,5.279,0,1,0,5.279,5.279,5.28,5.28,0,0,0-5.279-5.279m19.986,0a5.279,5.279,0,1,0,5.279,5.279,5.28,5.28,0,0,0-5.279-5.279" transform="translate(0.151 1.849)" fill="#ccaf91" stroke="#707070" stroke-width="1"/>
        <path id="Trazado_891149" data-name="Trazado 891149" d="M.125,18.222h0a16.694,16.694,0,0,1,16.7-16.694H787.249v33.39H16.821A16.7,16.7,0,0,1,.125,18.222Zm94.4-5.754A5.279,5.279,0,1,0,99.8,17.747,5.278,5.278,0,0,0,94.525,12.468Zm19.986,0a5.279,5.279,0,1,0,5.279,5.279A5.28,5.28,0,0,0,114.512,12.468Zm19.986,0a5.279,5.279,0,1,0,5.279,5.279A5.28,5.28,0,0,0,134.5,12.468Zm19.986,0a5.279,5.279,0,1,0,5.279,5.279A5.28,5.28,0,0,0,154.484,12.468Zm19.986,0a5.279,5.279,0,1,0,5.279,5.279A5.28,5.28,0,0,0,174.47,12.468Z" transform="translate(0.151 1.849)" fill="none" stroke="#000" stroke-miterlimit="10" stroke-width="1"/>
        <rect id="Rectángulo_402095" data-name="Rectángulo 402095" width="12.889" height="39.59" transform="translate(757.877 0.276)" fill="#8d7964" stroke="#707070" stroke-width="1"/>
        <rect id="Rectángulo_402096" data-name="Rectángulo 402096" width="12.889" height="39.59" transform="translate(757.877 0.276)" fill="none" stroke="#000" stroke-miterlimit="10" stroke-width="1"/>
        <path id="Trazado_891150" data-name="Trazado 891150" d="M356.1,12.409h32.4V8.173H356.1a2.118,2.118,0,0,0,0,4.236" transform="translate(428.197 9.887)" stroke="#707070" stroke-width="1"/>
        <path id="Trazado_891151" data-name="Trazado 891151" d="M356.1,12.409h32.4V8.173H356.1a2.118,2.118,0,0,0,0,4.236Z" transform="translate(428.197 9.887)" fill="#9aa3af" stroke="#000" stroke-miterlimit="10" stroke-width="1"/>
        <path id="Trazado_891152" data-name="Trazado 891152" d="M347.007,1.528s-14.27,6.859-16.02,17.631c0,0-.46,8.317,16.02,15.759" transform="translate(400.374 1.849)" fill="none" stroke="#000" stroke-miterlimit="10" stroke-width="1"/>
      </g>
    </g>
    <line id="Línea_719" data-name="Línea 719" y2="37" transform="translate(524.956 2538.5)" fill="none" stroke="#3b574d" stroke-width="1"/>
    <line id="Línea_721" data-name="Línea 721" x2="685" transform="translate(524.956 2564.5)" fill="none" stroke="#3b574d" stroke-width="1"/>
    <line id="Línea_720" data-name="Línea 720" y2="32" transform="translate(1210.456 2544)" fill="none" stroke="#3b574d" stroke-width="1"/>
  </g>
</svg>
