<svg xmlns="http://www.w3.org/2000/svg" width="631" height="96.337" viewBox="0 0 631 96.337">
  <g id="Grupo_1106542" data-name="Grupo 1106542" transform="translate(-495 -2250.163)">
    <path id="Unión_20" data-name="Unión 20" d="M1151.328,11674v-11.5h-84.873v-42.989h84.873V11608h440.128v11.5h84.873v42.989h-84.873v11.5Z" transform="translate(-571.328 -9336.836)" fill="#ebe6e6"/>
    <text id="_50_cm" data-name="50 cm" transform="translate(800 2260.163)" fill="#4b1c16" font-size="8" font-family="Roboto-Regular, Roboto"><tspan x="-11.082" y="0">50 cm</tspan></text>
    <text id="_4.4_cm" data-name="4.4 cm" transform="translate(1122 2303.395) rotate(-90)" fill="#4b1c16" font-size="8" font-family="Roboto-Regular, Roboto"><tspan x="-12.135" y="0">4.4 cm</tspan></text>
    <text id="_7.5_cm" data-name="7.5 cm" transform="translate(1064.805 2342.5)" fill="#4b1c16" font-size="8" font-family="Roboto-Regular, Roboto"><tspan x="-12.135" y="0">7.5 cm</tspan></text>
    <text id="_5_cm" data-name="5 cm" transform="translate(806.5 2302.669) rotate(-90)" fill="#4b1c16" font-size="8" font-family="Roboto-Regular, Roboto"><tspan x="-8.836" y="0">5 cm</tspan></text>
    <line id="Línea_563" data-name="Línea 563" x2="609.956" transform="translate(495 2265.163)" fill="none" stroke="#655647" stroke-width="1"/>
    <line id="Línea_568" data-name="Línea 568" y1="43" transform="translate(1111.5 2282.5)" fill="none" stroke="#655647" stroke-width="1"/>
    <line id="Línea_694" data-name="Línea 694" y1="84.5" transform="translate(1104.5 2332) rotate(90)" fill="none" stroke="#655647" stroke-width="1"/>
    <line id="Línea_691" data-name="Línea 691" y1="65.837" transform="translate(796 2271.663)" fill="none" stroke="#655647" stroke-width="1"/>
    <line id="Línea_564" data-name="Línea 564" y2="21" transform="translate(495.5 2250.163)" fill="none" stroke="#655647" stroke-width="1"/>
    <line id="Línea_567" data-name="Línea 567" y2="21" transform="translate(1105 2325.5) rotate(-90)" fill="none" stroke="#655647" stroke-width="1"/>
    <line id="Línea_693" data-name="Línea 693" y2="21" transform="translate(1020.337 2325.5)" fill="none" stroke="#655647" stroke-width="1"/>
    <line id="Línea_690" data-name="Línea 690" y2="21" transform="translate(789.5 2337.163) rotate(-90)" fill="none" stroke="#655647" stroke-width="1"/>
    <line id="Línea_565" data-name="Línea 565" y2="21" transform="translate(1105 2250.163)" fill="none" stroke="#655647" stroke-width="1"/>
    <line id="Línea_566" data-name="Línea 566" y2="21" transform="translate(1105 2282.732) rotate(-90)" fill="none" stroke="#655647" stroke-width="1"/>
    <line id="Línea_692" data-name="Línea 692" y2="21" transform="translate(1105 2325.5)" fill="none" stroke="#655647" stroke-width="1"/>
    <line id="Línea_689" data-name="Línea 689" y2="21" transform="translate(789.5 2271.163) rotate(-90)" fill="none" stroke="#655647" stroke-width="1"/>
  </g>
</svg>
