<svg xmlns="http://www.w3.org/2000/svg" width="610" height="375" viewBox="0 0 610 375">
  <g id="Grupo_1107005" data-name="Grupo 1107005" transform="translate(-495.456 -4811)">
    <path id="Trazado_895139" data-name="Trazado 895139" d="M40,0H255a40,40,0,0,1,40,40V375H0V40A40,40,0,0,1,40,0Z" transform="translate(810.456 4811)" fill="#bbcbc5"/>
    <g id="Trazado_895140" data-name="Trazado 895140" transform="translate(823.456 4824)" fill="#bbcbc5">
      <path d="M 268.5 348.5 L 0.5 348.5 L 0.5 40 C 0.5 34.66731643676758 1.544318199157715 29.49440956115723 3.603909015655518 24.625 C 5.593317985534668 19.92140960693359 8.441499710083008 15.69704532623291 12.06927299499512 12.06927299499512 C 15.69704532623291 8.441499710083008 19.92140960693359 5.593363761901855 24.62495422363281 3.603909015655518 C 29.49440956115723 1.544318199157715 34.66731643676758 0.5 40 0.5 L 229 0.5 C 234.3326873779297 0.5 239.5055847167969 1.544318199157715 244.3750457763672 3.603909015655518 C 249.0785980224609 5.593363761901855 253.3029479980469 8.441499710083008 256.9307250976562 12.06927299499512 C 260.5585021972656 15.69704532623291 263.4066772460938 19.92140960693359 265.3960876464844 24.625 C 267.4556884765625 29.49440956115723 268.5 34.66731643676758 268.5 40 L 268.5 348.5 Z" stroke="none"/>
      <path d="M 40 1 C 34.73458862304688 1 29.62722778320312 2.031005859375 24.81973266601562 4.064422607421875 C 20.17576599121094 6.02862548828125 16.00486755371094 8.8408203125 12.42282104492188 12.42282104492188 C 8.8408203125 16.00485229492188 6.02862548828125 20.17578125 4.064422607421875 24.81973266601562 C 2.031005859375 29.62722778320312 1 34.73458862304688 1 40 L 1 348 L 268 348 L 268 40 C 268 34.73458862304688 266.968994140625 29.62722778320312 264.9355773925781 24.81973266601562 C 262.9713745117188 20.17578125 260.1591796875 16.00485229492188 256.5771484375 12.42282104492188 C 252.9951324462891 8.8408203125 248.82421875 6.02862548828125 244.1802215576172 4.064422607421875 C 239.3727722167969 2.031005859375 234.2654113769531 1 229 1 L 40 1 M 40 0 L 229 0 C 251.0913696289062 0 269 17.90859985351562 269 40 L 269 349 L 0 349 L 0 40 C 0 17.90859985351562 17.90858459472656 0 40 0 Z" stroke="none" fill="#567e6f"/>
    </g>
    <path id="Trazado_895147" data-name="Trazado 895147" d="M4.844-1.8A2.092,2.092,0,0,1,4.178-.412a2.183,2.183,0,0,1-1.49.49A2,2,0,0,1,1.072-.645,2.907,2.907,0,0,1,.465-2.578v-.547A3.241,3.241,0,0,1,.748-4.52a2.115,2.115,0,0,1,.8-.924,2.235,2.235,0,0,1,1.2-.322,2.055,2.055,0,0,1,1.453.506,2.118,2.118,0,0,1,.637,1.4H4.09a1.634,1.634,0,0,0-.424-.987,1.282,1.282,0,0,0-.912-.306,1.342,1.342,0,0,0-1.127.532,2.441,2.441,0,0,0-.408,1.513v.551a2.509,2.509,0,0,0,.387,1.474,1.25,1.25,0,0,0,1.082.547,1.443,1.443,0,0,0,.959-.283A1.572,1.572,0,0,0,4.09-1.8Zm.719-.348A2.5,2.5,0,0,1,5.807-3.27a1.821,1.821,0,0,1,.68-.766A1.85,1.85,0,0,1,7.48-4.3a1.782,1.782,0,0,1,1.4.6,2.3,2.3,0,0,1,.533,1.59v.051A2.518,2.518,0,0,1,9.174-.959,1.794,1.794,0,0,1,8.5-.2a1.871,1.871,0,0,1-1.01.273A1.778,1.778,0,0,1,6.1-.52,2.288,2.288,0,0,1,5.563-2.1Zm.727.086A1.808,1.808,0,0,0,6.615-.937a1.044,1.044,0,0,0,.873.426,1.038,1.038,0,0,0,.875-.432,1.977,1.977,0,0,0,.324-1.209,1.805,1.805,0,0,0-.33-1.127,1.049,1.049,0,0,0-.877-.432,1.038,1.038,0,0,0-.863.426A1.963,1.963,0,0,0,6.289-2.066Zm6.488.945a.532.532,0,0,0-.221-.455,2.124,2.124,0,0,0-.77-.279,3.638,3.638,0,0,1-.871-.281,1.239,1.239,0,0,1-.477-.391.934.934,0,0,1-.154-.539,1.1,1.1,0,0,1,.439-.879A1.716,1.716,0,0,1,11.848-4.3a1.766,1.766,0,0,1,1.166.371,1.179,1.179,0,0,1,.447.949h-.727a.652.652,0,0,0-.252-.512.944.944,0,0,0-.635-.215.988.988,0,0,0-.617.172.541.541,0,0,0-.223.449.438.438,0,0,0,.207.395,2.547,2.547,0,0,0,.748.254,3.9,3.9,0,0,1,.877.289,1.279,1.279,0,0,1,.5.4.994.994,0,0,1,.162.576,1.082,1.082,0,0,1-.453.908,1.9,1.9,0,0,1-1.176.342,2.128,2.128,0,0,1-.9-.18,1.461,1.461,0,0,1-.611-.5,1.21,1.21,0,0,1-.221-.7h.723a.748.748,0,0,0,.291.576,1.129,1.129,0,0,0,.717.213,1.165,1.165,0,0,0,.658-.166A.51.51,0,0,0,12.777-1.121ZM15.422-5.25v1.023h.789v.559h-.789v2.624a.587.587,0,0,0,.105.381.444.444,0,0,0,.359.127,1.75,1.75,0,0,0,.344-.047V0a2.107,2.107,0,0,1-.555.078.9.9,0,0,1-.73-.293,1.259,1.259,0,0,1-.246-.832V-3.668h-.77v-.559h.77V-5.25ZM19.664-.418a1.535,1.535,0,0,1-1.238.5A1.314,1.314,0,0,1,17.4-.314a1.7,1.7,0,0,1-.357-1.162v-2.75h.723V-1.5q0,.961.781.961a1.082,1.082,0,0,0,1.1-.617V-4.227h.723V0H19.68Zm3.844-3.16a2.166,2.166,0,0,0-.355-.027A.952.952,0,0,0,22.188-3V0h-.723V-4.227h.7l.012.488A1.125,1.125,0,0,1,23.188-4.3a.738.738,0,0,1,.32.055ZM26.625,0a1.518,1.518,0,0,1-.1-.445,1.612,1.612,0,0,1-1.2.523,1.492,1.492,0,0,1-1.025-.354,1.144,1.144,0,0,1-.4-.9A1.2,1.2,0,0,1,24.4-2.2a2.367,2.367,0,0,1,1.412-.365h.7v-.332a.812.812,0,0,0-.227-.6.911.911,0,0,0-.668-.225,1.054,1.054,0,0,0-.648.2.576.576,0,0,0-.262.473H23.98a1,1,0,0,1,.225-.611,1.533,1.533,0,0,1,.609-.467A2.05,2.05,0,0,1,25.66-4.3a1.671,1.671,0,0,1,1.145.365,1.318,1.318,0,0,1,.43,1.006V-.988a2.378,2.378,0,0,0,.148.926V0Zm-1.2-.551a1.27,1.27,0,0,0,.645-.176,1.063,1.063,0,0,0,.441-.457v-.867h-.566q-1.328,0-1.328.777a.658.658,0,0,0,.227.531A.871.871,0,0,0,25.426-.551Z" transform="translate(943.956 4821)" fill="#4b1c16"/>
    <path id="Trazado_895156" data-name="Trazado 895156" d="M4.844-1.8A2.092,2.092,0,0,1,4.178-.412a2.183,2.183,0,0,1-1.49.49A2,2,0,0,1,1.072-.645,2.907,2.907,0,0,1,.465-2.578v-.547A3.241,3.241,0,0,1,.748-4.52a2.115,2.115,0,0,1,.8-.924,2.235,2.235,0,0,1,1.2-.322,2.055,2.055,0,0,1,1.453.506,2.118,2.118,0,0,1,.637,1.4H4.09a1.634,1.634,0,0,0-.424-.987,1.282,1.282,0,0,0-.912-.306,1.342,1.342,0,0,0-1.127.532,2.441,2.441,0,0,0-.408,1.513v.551a2.509,2.509,0,0,0,.387,1.474,1.25,1.25,0,0,0,1.082.547,1.443,1.443,0,0,0,.959-.283A1.572,1.572,0,0,0,4.09-1.8Zm.719-.348A2.5,2.5,0,0,1,5.807-3.27a1.821,1.821,0,0,1,.68-.766A1.85,1.85,0,0,1,7.48-4.3a1.782,1.782,0,0,1,1.4.6,2.3,2.3,0,0,1,.533,1.59v.051A2.518,2.518,0,0,1,9.174-.959,1.794,1.794,0,0,1,8.5-.2a1.871,1.871,0,0,1-1.01.273A1.778,1.778,0,0,1,6.1-.52,2.288,2.288,0,0,1,5.563-2.1Zm.727.086A1.808,1.808,0,0,0,6.615-.937a1.044,1.044,0,0,0,.873.426,1.038,1.038,0,0,0,.875-.432,1.977,1.977,0,0,0,.324-1.209,1.805,1.805,0,0,0-.33-1.127,1.049,1.049,0,0,0-.877-.432,1.038,1.038,0,0,0-.863.426A1.963,1.963,0,0,0,6.289-2.066Zm6.488.945a.532.532,0,0,0-.221-.455,2.124,2.124,0,0,0-.77-.279,3.638,3.638,0,0,1-.871-.281,1.239,1.239,0,0,1-.477-.391.934.934,0,0,1-.154-.539,1.1,1.1,0,0,1,.439-.879A1.716,1.716,0,0,1,11.848-4.3a1.766,1.766,0,0,1,1.166.371,1.179,1.179,0,0,1,.447.949h-.727a.652.652,0,0,0-.252-.512.944.944,0,0,0-.635-.215.988.988,0,0,0-.617.172.541.541,0,0,0-.223.449.438.438,0,0,0,.207.395,2.547,2.547,0,0,0,.748.254,3.9,3.9,0,0,1,.877.289,1.279,1.279,0,0,1,.5.4.994.994,0,0,1,.162.576,1.082,1.082,0,0,1-.453.908,1.9,1.9,0,0,1-1.176.342,2.128,2.128,0,0,1-.9-.18,1.461,1.461,0,0,1-.611-.5,1.21,1.21,0,0,1-.221-.7h.723a.748.748,0,0,0,.291.576,1.129,1.129,0,0,0,.717.213,1.165,1.165,0,0,0,.658-.166A.51.51,0,0,0,12.777-1.121ZM15.422-5.25v1.023h.789v.559h-.789v2.624a.587.587,0,0,0,.105.381.444.444,0,0,0,.359.127,1.75,1.75,0,0,0,.344-.047V0a2.107,2.107,0,0,1-.555.078.9.9,0,0,1-.73-.293,1.259,1.259,0,0,1-.246-.832V-3.668h-.77v-.559h.77V-5.25ZM19.664-.418a1.535,1.535,0,0,1-1.238.5A1.314,1.314,0,0,1,17.4-.314a1.7,1.7,0,0,1-.357-1.162v-2.75h.723V-1.5q0,.961.781.961a1.082,1.082,0,0,0,1.1-.617V-4.227h.723V0H19.68Zm3.844-3.16a2.166,2.166,0,0,0-.355-.027A.952.952,0,0,0,22.188-3V0h-.723V-4.227h.7l.012.488A1.125,1.125,0,0,1,23.188-4.3a.738.738,0,0,1,.32.055ZM26.625,0a1.518,1.518,0,0,1-.1-.445,1.612,1.612,0,0,1-1.2.523,1.492,1.492,0,0,1-1.025-.354,1.144,1.144,0,0,1-.4-.9A1.2,1.2,0,0,1,24.4-2.2a2.367,2.367,0,0,1,1.412-.365h.7v-.332a.812.812,0,0,0-.227-.6.911.911,0,0,0-.668-.225,1.054,1.054,0,0,0-.648.2.576.576,0,0,0-.262.473H23.98a1,1,0,0,1,.225-.611,1.533,1.533,0,0,1,.609-.467A2.05,2.05,0,0,1,25.66-4.3a1.671,1.671,0,0,1,1.145.365,1.318,1.318,0,0,1,.43,1.006V-.988a2.378,2.378,0,0,0,.148.926V0Zm-1.2-.551a1.27,1.27,0,0,0,.645-.176,1.063,1.063,0,0,0,.441-.457v-.867h-.566q-1.328,0-1.328.777a.658.658,0,0,0,.227.531A.871.871,0,0,0,25.426-.551Z" transform="translate(943.956 5182)" fill="#4b1c16"/>
    <path id="Trazado_895141" data-name="Trazado 895141" d="M0,0H295" transform="translate(810.456 4944)" fill="none" stroke="#567e6f" stroke-width="1"/>
    <path id="Trazado_895142" data-name="Trazado 895142" d="M0,0H295" transform="translate(810.456 4937)" fill="none" stroke="#dce4e1" stroke-width="1"/>
    <path id="Trazado_895145" data-name="Trazado 895145" d="M0,0H295" transform="translate(810.456 5057)" fill="none" stroke="#dce4e1" stroke-width="1"/>
    <g id="Grupo_1107004" data-name="Grupo 1107004">
      <path id="Rect치ngulo_402073" data-name="Rect치ngulo 402073" d="M40,0H255a40,40,0,0,1,40,40V375a0,0,0,0,1,0,0H0a0,0,0,0,1,0,0V40A40,40,0,0,1,40,0Z" transform="translate(495.456 4811)" fill="#bbcbc5"/>
      <g id="Rect치ngulo_402075" data-name="Rect치ngulo 402075" transform="translate(508.456 4824)" fill="#bbcbc5" stroke="#567e6f" stroke-width="1">
        <path d="M40,0H229a40,40,0,0,1,40,40V349a0,0,0,0,1,0,0H0a0,0,0,0,1,0,0V40A40,40,0,0,1,40,0Z" stroke="none"/>
        <path d="M40,.5H229A39.5,39.5,0,0,1,268.5,40V348.5a0,0,0,0,1,0,0H.5a0,0,0,0,1,0,0V40A39.5,39.5,0,0,1,40,.5Z" fill="none"/>
      </g>
      <text id="Costura" transform="translate(628.956 4821)" fill="#4b1c16" font-size="8" font-family="Roboto-Regular, Roboto"><tspan x="0" y="0">Costura</tspan></text>
    </g>
    <path id="Trazado_895157" data-name="Trazado 895157" d="M4.844-1.8A2.092,2.092,0,0,1,4.178-.412a2.183,2.183,0,0,1-1.49.49A2,2,0,0,1,1.072-.645,2.907,2.907,0,0,1,.465-2.578v-.547A3.241,3.241,0,0,1,.748-4.52a2.115,2.115,0,0,1,.8-.924,2.235,2.235,0,0,1,1.2-.322,2.055,2.055,0,0,1,1.453.506,2.118,2.118,0,0,1,.637,1.4H4.09a1.634,1.634,0,0,0-.424-.987,1.282,1.282,0,0,0-.912-.306,1.342,1.342,0,0,0-1.127.532,2.441,2.441,0,0,0-.408,1.513v.551a2.509,2.509,0,0,0,.387,1.474,1.25,1.25,0,0,0,1.082.547,1.443,1.443,0,0,0,.959-.283A1.572,1.572,0,0,0,4.09-1.8Zm.719-.348A2.5,2.5,0,0,1,5.807-3.27a1.821,1.821,0,0,1,.68-.766A1.85,1.85,0,0,1,7.48-4.3a1.782,1.782,0,0,1,1.4.6,2.3,2.3,0,0,1,.533,1.59v.051A2.518,2.518,0,0,1,9.174-.959,1.794,1.794,0,0,1,8.5-.2a1.871,1.871,0,0,1-1.01.273A1.778,1.778,0,0,1,6.1-.52,2.288,2.288,0,0,1,5.563-2.1Zm.727.086A1.808,1.808,0,0,0,6.615-.937a1.044,1.044,0,0,0,.873.426,1.038,1.038,0,0,0,.875-.432,1.977,1.977,0,0,0,.324-1.209,1.805,1.805,0,0,0-.33-1.127,1.049,1.049,0,0,0-.877-.432,1.038,1.038,0,0,0-.863.426A1.963,1.963,0,0,0,6.289-2.066Zm6.488.945a.532.532,0,0,0-.221-.455,2.124,2.124,0,0,0-.77-.279,3.638,3.638,0,0,1-.871-.281,1.239,1.239,0,0,1-.477-.391.934.934,0,0,1-.154-.539,1.1,1.1,0,0,1,.439-.879A1.716,1.716,0,0,1,11.848-4.3a1.766,1.766,0,0,1,1.166.371,1.179,1.179,0,0,1,.447.949h-.727a.652.652,0,0,0-.252-.512.944.944,0,0,0-.635-.215.988.988,0,0,0-.617.172.541.541,0,0,0-.223.449.438.438,0,0,0,.207.395,2.547,2.547,0,0,0,.748.254,3.9,3.9,0,0,1,.877.289,1.279,1.279,0,0,1,.5.4.994.994,0,0,1,.162.576,1.082,1.082,0,0,1-.453.908,1.9,1.9,0,0,1-1.176.342,2.128,2.128,0,0,1-.9-.18,1.461,1.461,0,0,1-.611-.5,1.21,1.21,0,0,1-.221-.7h.723a.748.748,0,0,0,.291.576,1.129,1.129,0,0,0,.717.213,1.165,1.165,0,0,0,.658-.166A.51.51,0,0,0,12.777-1.121ZM15.422-5.25v1.023h.789v.559h-.789v2.624a.587.587,0,0,0,.105.381.444.444,0,0,0,.359.127,1.75,1.75,0,0,0,.344-.047V0a2.107,2.107,0,0,1-.555.078.9.9,0,0,1-.73-.293,1.259,1.259,0,0,1-.246-.832V-3.668h-.77v-.559h.77V-5.25ZM19.664-.418a1.535,1.535,0,0,1-1.238.5A1.314,1.314,0,0,1,17.4-.314a1.7,1.7,0,0,1-.357-1.162v-2.75h.723V-1.5q0,.961.781.961a1.082,1.082,0,0,0,1.1-.617V-4.227h.723V0H19.68Zm3.844-3.16a2.166,2.166,0,0,0-.355-.027A.952.952,0,0,0,22.188-3V0h-.723V-4.227h.7l.012.488A1.125,1.125,0,0,1,23.188-4.3a.738.738,0,0,1,.32.055ZM26.625,0a1.518,1.518,0,0,1-.1-.445,1.612,1.612,0,0,1-1.2.523,1.492,1.492,0,0,1-1.025-.354,1.144,1.144,0,0,1-.4-.9A1.2,1.2,0,0,1,24.4-2.2a2.367,2.367,0,0,1,1.412-.365h.7v-.332a.812.812,0,0,0-.227-.6.911.911,0,0,0-.668-.225,1.054,1.054,0,0,0-.648.2.576.576,0,0,0-.262.473H23.98a1,1,0,0,1,.225-.611,1.533,1.533,0,0,1,.609-.467A2.05,2.05,0,0,1,25.66-4.3a1.671,1.671,0,0,1,1.145.365,1.318,1.318,0,0,1,.43,1.006V-.988a2.378,2.378,0,0,0,.148.926V0Zm-1.2-.551a1.27,1.27,0,0,0,.645-.176,1.063,1.063,0,0,0,.441-.457v-.867h-.566q-1.328,0-1.328.777a.658.658,0,0,0,.227.531A.871.871,0,0,0,25.426-.551Z" transform="translate(628.956 5182)" fill="#4b1c16"/>
    <path id="Trazado_895154" data-name="Trazado 895154" d="M0,0H295" transform="translate(495.456 4944)" fill="none" stroke="#567e6f" stroke-width="1"/>
    <path id="Trazado_895155" data-name="Trazado 895155" d="M0,0H295" transform="translate(495.456 5064)" fill="none" stroke="#567e6f" stroke-width="1"/>
    <path id="Trazado_895146" data-name="Trazado 895146" d="M0,0H295" transform="translate(810.456 5064)" fill="none" stroke="#567e6f" stroke-width="1"/>
    <path id="Trazado_895148" data-name="Trazado 895148" d="M0,0V6" transform="translate(836.539 4937.5)" fill="none" stroke="#707070" stroke-linecap="round" stroke-width="1"/>
    <path id="Trazado_891126" data-name="Trazado 891126" d="M1077.719,3069l-15.5,3.913,15.5,3.587" transform="translate(-233.429 1867.5)" fill="none" stroke="#707070" stroke-linecap="round" stroke-width="1"/>
    <path id="Trazado_895150" data-name="Trazado 895150" d="M0,0H5" transform="translate(824.956 4940.413)" fill="none" stroke="#707070" stroke-linecap="round" stroke-width="1"/>
    <path id="Trazado_895151" data-name="Trazado 895151" d="M1.5,0A1.5,1.5,0,1,1,0,1.5,1.5,1.5,0,0,1,1.5,0Z" transform="translate(826.456 4938.882)" fill="#707070"/>
    <path id="Trazado_895149" data-name="Trazado 895149" d="M0,0V6" transform="translate(836.539 5057.5)" fill="none" stroke="#707070" stroke-linecap="round" stroke-width="1"/>
    <path id="Trazado_891126-2" data-name="Trazado 891126" d="M1077.719,3069l-15.5,3.913,15.5,3.587" transform="translate(-233.429 1987.5)" fill="none" stroke="#707070" stroke-linecap="round" stroke-width="1"/>
    <path id="Trazado_895152" data-name="Trazado 895152" d="M0,0H5" transform="translate(824.956 5060.413)" fill="none" stroke="#707070" stroke-linecap="round" stroke-width="1"/>
    <path id="Trazado_895153" data-name="Trazado 895153" d="M1.5,0A1.5,1.5,0,1,1,0,1.5,1.5,1.5,0,0,1,1.5,0Z" transform="translate(826.456 5058.882)" fill="#707070"/>
    <path id="Trazado_895143" data-name="Trazado 895143" d="M4.844-1.8A2.092,2.092,0,0,1,4.178-.412a2.183,2.183,0,0,1-1.49.49A2,2,0,0,1,1.072-.645,2.907,2.907,0,0,1,.465-2.578v-.547A3.241,3.241,0,0,1,.748-4.52a2.115,2.115,0,0,1,.8-.924,2.235,2.235,0,0,1,1.2-.322,2.055,2.055,0,0,1,1.453.506,2.118,2.118,0,0,1,.637,1.4H4.09a1.634,1.634,0,0,0-.424-.987,1.282,1.282,0,0,0-.912-.306,1.342,1.342,0,0,0-1.127.532,2.441,2.441,0,0,0-.408,1.513v.551a2.509,2.509,0,0,0,.387,1.474,1.25,1.25,0,0,0,1.082.547,1.443,1.443,0,0,0,.959-.283A1.572,1.572,0,0,0,4.09-1.8Zm.719-.348A2.5,2.5,0,0,1,5.807-3.27a1.821,1.821,0,0,1,.68-.766A1.85,1.85,0,0,1,7.48-4.3a1.782,1.782,0,0,1,1.4.6,2.3,2.3,0,0,1,.533,1.59v.051A2.518,2.518,0,0,1,9.174-.959,1.794,1.794,0,0,1,8.5-.2a1.871,1.871,0,0,1-1.01.273A1.778,1.778,0,0,1,6.1-.52,2.288,2.288,0,0,1,5.563-2.1Zm.727.086A1.808,1.808,0,0,0,6.615-.937a1.044,1.044,0,0,0,.873.426,1.038,1.038,0,0,0,.875-.432,1.977,1.977,0,0,0,.324-1.209,1.805,1.805,0,0,0-.33-1.127,1.049,1.049,0,0,0-.877-.432,1.038,1.038,0,0,0-.863.426A1.963,1.963,0,0,0,6.289-2.066Zm6.488.945a.532.532,0,0,0-.221-.455,2.124,2.124,0,0,0-.77-.279,3.638,3.638,0,0,1-.871-.281,1.239,1.239,0,0,1-.477-.391.934.934,0,0,1-.154-.539,1.1,1.1,0,0,1,.439-.879A1.716,1.716,0,0,1,11.848-4.3a1.766,1.766,0,0,1,1.166.371,1.179,1.179,0,0,1,.447.949h-.727a.652.652,0,0,0-.252-.512.944.944,0,0,0-.635-.215.988.988,0,0,0-.617.172.541.541,0,0,0-.223.449.438.438,0,0,0,.207.395,2.547,2.547,0,0,0,.748.254,3.9,3.9,0,0,1,.877.289,1.279,1.279,0,0,1,.5.4.994.994,0,0,1,.162.576,1.082,1.082,0,0,1-.453.908,1.9,1.9,0,0,1-1.176.342,2.128,2.128,0,0,1-.9-.18,1.461,1.461,0,0,1-.611-.5,1.21,1.21,0,0,1-.221-.7h.723a.748.748,0,0,0,.291.576,1.129,1.129,0,0,0,.717.213,1.165,1.165,0,0,0,.658-.166A.51.51,0,0,0,12.777-1.121ZM15.422-5.25v1.023h.789v.559h-.789v2.624a.587.587,0,0,0,.105.381.444.444,0,0,0,.359.127,1.75,1.75,0,0,0,.344-.047V0a2.107,2.107,0,0,1-.555.078.9.9,0,0,1-.73-.293,1.259,1.259,0,0,1-.246-.832V-3.668h-.77v-.559h.77V-5.25ZM19.664-.418a1.535,1.535,0,0,1-1.238.5A1.314,1.314,0,0,1,17.4-.314a1.7,1.7,0,0,1-.357-1.162v-2.75h.723V-1.5q0,.961.781.961a1.082,1.082,0,0,0,1.1-.617V-4.227h.723V0H19.68Zm3.844-3.16a2.166,2.166,0,0,0-.355-.027A.952.952,0,0,0,22.188-3V0h-.723V-4.227h.7l.012.488A1.125,1.125,0,0,1,23.188-4.3a.738.738,0,0,1,.32.055ZM26.625,0a1.518,1.518,0,0,1-.1-.445,1.612,1.612,0,0,1-1.2.523,1.492,1.492,0,0,1-1.025-.354,1.144,1.144,0,0,1-.4-.9A1.2,1.2,0,0,1,24.4-2.2a2.367,2.367,0,0,1,1.412-.365h.7v-.332a.812.812,0,0,0-.227-.6.911.911,0,0,0-.668-.225,1.054,1.054,0,0,0-.648.2.576.576,0,0,0-.262.473H23.98a1,1,0,0,1,.225-.611,1.533,1.533,0,0,1,.609-.467A2.05,2.05,0,0,1,25.66-4.3a1.671,1.671,0,0,1,1.145.365,1.318,1.318,0,0,1,.43,1.006V-.988a2.378,2.378,0,0,0,.148.926V0Zm-1.2-.551a1.27,1.27,0,0,0,.645-.176,1.063,1.063,0,0,0,.441-.457v-.867h-.566q-1.328,0-1.328.777a.658.658,0,0,0,.227.531A.871.871,0,0,0,25.426-.551Z" transform="translate(943.956 4942)" fill="#4b1c16"/>
    <path id="Trazado_895144" data-name="Trazado 895144" d="M4.844-1.8A2.092,2.092,0,0,1,4.178-.412a2.183,2.183,0,0,1-1.49.49A2,2,0,0,1,1.072-.645,2.907,2.907,0,0,1,.465-2.578v-.547A3.241,3.241,0,0,1,.748-4.52a2.115,2.115,0,0,1,.8-.924,2.235,2.235,0,0,1,1.2-.322,2.055,2.055,0,0,1,1.453.506,2.118,2.118,0,0,1,.637,1.4H4.09a1.634,1.634,0,0,0-.424-.987,1.282,1.282,0,0,0-.912-.306,1.342,1.342,0,0,0-1.127.532,2.441,2.441,0,0,0-.408,1.513v.551a2.509,2.509,0,0,0,.387,1.474,1.25,1.25,0,0,0,1.082.547,1.443,1.443,0,0,0,.959-.283A1.572,1.572,0,0,0,4.09-1.8Zm.719-.348A2.5,2.5,0,0,1,5.807-3.27a1.821,1.821,0,0,1,.68-.766A1.85,1.85,0,0,1,7.48-4.3a1.782,1.782,0,0,1,1.4.6,2.3,2.3,0,0,1,.533,1.59v.051A2.518,2.518,0,0,1,9.174-.959,1.794,1.794,0,0,1,8.5-.2a1.871,1.871,0,0,1-1.01.273A1.778,1.778,0,0,1,6.1-.52,2.288,2.288,0,0,1,5.563-2.1Zm.727.086A1.808,1.808,0,0,0,6.615-.937a1.044,1.044,0,0,0,.873.426,1.038,1.038,0,0,0,.875-.432,1.977,1.977,0,0,0,.324-1.209,1.805,1.805,0,0,0-.33-1.127,1.049,1.049,0,0,0-.877-.432,1.038,1.038,0,0,0-.863.426A1.963,1.963,0,0,0,6.289-2.066Zm6.488.945a.532.532,0,0,0-.221-.455,2.124,2.124,0,0,0-.77-.279,3.638,3.638,0,0,1-.871-.281,1.239,1.239,0,0,1-.477-.391.934.934,0,0,1-.154-.539,1.1,1.1,0,0,1,.439-.879A1.716,1.716,0,0,1,11.848-4.3a1.766,1.766,0,0,1,1.166.371,1.179,1.179,0,0,1,.447.949h-.727a.652.652,0,0,0-.252-.512.944.944,0,0,0-.635-.215.988.988,0,0,0-.617.172.541.541,0,0,0-.223.449.438.438,0,0,0,.207.395,2.547,2.547,0,0,0,.748.254,3.9,3.9,0,0,1,.877.289,1.279,1.279,0,0,1,.5.4.994.994,0,0,1,.162.576,1.082,1.082,0,0,1-.453.908,1.9,1.9,0,0,1-1.176.342,2.128,2.128,0,0,1-.9-.18,1.461,1.461,0,0,1-.611-.5,1.21,1.21,0,0,1-.221-.7h.723a.748.748,0,0,0,.291.576,1.129,1.129,0,0,0,.717.213,1.165,1.165,0,0,0,.658-.166A.51.51,0,0,0,12.777-1.121ZM15.422-5.25v1.023h.789v.559h-.789v2.624a.587.587,0,0,0,.105.381.444.444,0,0,0,.359.127,1.75,1.75,0,0,0,.344-.047V0a2.107,2.107,0,0,1-.555.078.9.9,0,0,1-.73-.293,1.259,1.259,0,0,1-.246-.832V-3.668h-.77v-.559h.77V-5.25ZM19.664-.418a1.535,1.535,0,0,1-1.238.5A1.314,1.314,0,0,1,17.4-.314a1.7,1.7,0,0,1-.357-1.162v-2.75h.723V-1.5q0,.961.781.961a1.082,1.082,0,0,0,1.1-.617V-4.227h.723V0H19.68Zm3.844-3.16a2.166,2.166,0,0,0-.355-.027A.952.952,0,0,0,22.188-3V0h-.723V-4.227h.7l.012.488A1.125,1.125,0,0,1,23.188-4.3a.738.738,0,0,1,.32.055ZM26.625,0a1.518,1.518,0,0,1-.1-.445,1.612,1.612,0,0,1-1.2.523,1.492,1.492,0,0,1-1.025-.354,1.144,1.144,0,0,1-.4-.9A1.2,1.2,0,0,1,24.4-2.2a2.367,2.367,0,0,1,1.412-.365h.7v-.332a.812.812,0,0,0-.227-.6.911.911,0,0,0-.668-.225,1.054,1.054,0,0,0-.648.2.576.576,0,0,0-.262.473H23.98a1,1,0,0,1,.225-.611,1.533,1.533,0,0,1,.609-.467A2.05,2.05,0,0,1,25.66-4.3a1.671,1.671,0,0,1,1.145.365,1.318,1.318,0,0,1,.43,1.006V-.988a2.378,2.378,0,0,0,.148.926V0Zm-1.2-.551a1.27,1.27,0,0,0,.645-.176,1.063,1.063,0,0,0,.441-.457v-.867h-.566q-1.328,0-1.328.777a.658.658,0,0,0,.227.531A.871.871,0,0,0,25.426-.551Z" transform="translate(943.956 5062)" fill="#4b1c16"/>
  </g>
</svg>
