<svg xmlns="http://www.w3.org/2000/svg" width="414.836" height="90.578" viewBox="0 0 414.836 90.578">
  <g id="Grupo_1107004" data-name="Grupo 1107004" transform="translate(-600.242 -10463)">
    <path id="Trazado_895148" data-name="Trazado 895148" d="M-12.857-3.2h.543a1.193,1.193,0,0,0,.8-.27.9.9,0,0,0,.293-.707.882.882,0,0,0-1-1,1.036,1.036,0,0,0-.748.268.936.936,0,0,0-.279.709h-.723a1.451,1.451,0,0,1,.494-1.123,1.8,1.8,0,0,1,1.256-.447,1.779,1.779,0,0,1,1.262.426,1.538,1.538,0,0,1,.457,1.184,1.248,1.248,0,0,1-.24.719,1.451,1.451,0,0,1-.654.52,1.4,1.4,0,0,1,.725.492,1.367,1.367,0,0,1,.256.84,1.551,1.551,0,0,1-.5,1.215,1.872,1.872,0,0,1-1.3.449,1.922,1.922,0,0,1-1.3-.434,1.438,1.438,0,0,1-.5-1.145h.727a.93.93,0,0,0,.293.719,1.114,1.114,0,0,0,.785.27,1.093,1.093,0,0,0,.8-.273,1.054,1.054,0,0,0,.277-.785.956.956,0,0,0-.3-.762,1.328,1.328,0,0,0-.879-.273h-.543Zm6.211.7a1.768,1.768,0,0,1-.541.434,1.468,1.468,0,0,1-.689.164,1.515,1.515,0,0,1-.857-.242A1.574,1.574,0,0,1-9.3-2.826,2.324,2.324,0,0,1-9.5-3.8a2.368,2.368,0,0,1,.217-1.027,1.593,1.593,0,0,1,.615-.7,1.754,1.754,0,0,1,.93-.242,1.588,1.588,0,0,1,1.33.631A2.752,2.752,0,0,1-5.92-3.414V-3.2A3.677,3.677,0,0,1-6.576-.779,2.521,2.521,0,0,1-8.557,0H-8.7V-.609h.152A1.99,1.99,0,0,0-7.17-1.075,2,2,0,0,0-6.646-2.5Zm-1.113,0a1.116,1.116,0,0,0,.67-.223,1.313,1.313,0,0,0,.447-.551v-.289a1.989,1.989,0,0,0-.309-1.156.921.921,0,0,0-.781-.445A.928.928,0,0,0-8.5-4.8a1.507,1.507,0,0,0-.289.963,1.568,1.568,0,0,0,.279.959A.884.884,0,0,0-7.76-2.5ZM-4.834-.379a.453.453,0,0,1,.111-.312.424.424,0,0,1,.334-.125.437.437,0,0,1,.338.125.443.443,0,0,1,.115.313.419.419,0,0,1-.115.3.445.445,0,0,1-.338.121.432.432,0,0,1-.334-.121A.428.428,0,0,1-4.834-.379ZM.232-1.91h.789v.59H.232V0H-.494V-1.32h-2.59v-.426L-.537-5.687h.77Zm-2.5,0h1.77V-4.7l-.086.156Zm7.688,1.4A1.041,1.041,0,0,0,6.1-.746a.825.825,0,0,0,.32-.586H7.1a1.31,1.31,0,0,1-.25.691,1.647,1.647,0,0,1-.615.523,1.775,1.775,0,0,1-.814.2A1.741,1.741,0,0,1,4.051-.5a2.3,2.3,0,0,1-.51-1.576V-2.2a2.545,2.545,0,0,1,.227-1.1,1.726,1.726,0,0,1,.65-.746,1.848,1.848,0,0,1,1-.266A1.7,1.7,0,0,1,6.6-3.879a1.522,1.522,0,0,1,.5,1.105H6.42a1,1,0,0,0-.311-.674.966.966,0,0,0-.689-.264,1.011,1.011,0,0,0-.854.4,1.862,1.862,0,0,0-.3,1.146v.137a1.825,1.825,0,0,0,.3,1.125A1.016,1.016,0,0,0,5.424-.512ZM8.6-4.227l.02.469A1.561,1.561,0,0,1,9.869-4.3a1.208,1.208,0,0,1,1.207.68,1.6,1.6,0,0,1,.549-.492,1.621,1.621,0,0,1,.8-.187q1.391,0,1.414,1.473V0h-.723V-2.789a.97.97,0,0,0-.207-.678.912.912,0,0,0-.7-.225.958.958,0,0,0-.668.24.975.975,0,0,0-.309.646V0H10.51V-2.77a.806.806,0,0,0-.9-.922.967.967,0,0,0-.973.605V0H7.912V-4.227Z" transform="translate(800.244 10553.5)" fill="#4b1c16"/>
    <path id="Trazado_895139" data-name="Trazado 895139" d="M0,0H73.439V400H0Z" transform="translate(1000.245 10463) rotate(90)" fill="#ebe6e6"/>
    <path id="Trazado_895140" data-name="Trazado 895140" d="M-7.99-5.281-10.346,0H-11.1l2.348-5.094h-3.078v-.594H-7.99Zm.91,4.9a.453.453,0,0,1,.111-.312.424.424,0,0,1,.334-.125A.437.437,0,0,1-6.3-.691a.443.443,0,0,1,.115.313.419.419,0,0,1-.115.3.445.445,0,0,1-.338.121.432.432,0,0,1-.334-.121A.428.428,0,0,1-7.08-.379ZM-2.014-1.91h.789v.59h-.789V0H-2.74V-1.32H-5.33v-.426l2.547-3.941h.77Zm-2.5,0h1.77V-4.7l-.086.156Zm7.688,1.4a1.041,1.041,0,0,0,.676-.234.825.825,0,0,0,.32-.586h.684a1.31,1.31,0,0,1-.25.691,1.647,1.647,0,0,1-.615.523,1.775,1.775,0,0,1-.814.2A1.741,1.741,0,0,1,1.8-.5a2.3,2.3,0,0,1-.51-1.576V-2.2a2.545,2.545,0,0,1,.227-1.1,1.726,1.726,0,0,1,.65-.746,1.848,1.848,0,0,1,1-.266,1.7,1.7,0,0,1,1.182.426,1.522,1.522,0,0,1,.5,1.105H4.174a1,1,0,0,0-.311-.674.966.966,0,0,0-.689-.264,1.011,1.011,0,0,0-.854.4,1.862,1.862,0,0,0-.3,1.146v.137a1.825,1.825,0,0,0,.3,1.125A1.016,1.016,0,0,0,3.178-.512ZM6.35-4.227l.02.469A1.561,1.561,0,0,1,7.623-4.3a1.208,1.208,0,0,1,1.207.68,1.6,1.6,0,0,1,.549-.492,1.621,1.621,0,0,1,.8-.187q1.391,0,1.414,1.473V0h-.723V-2.789a.97.97,0,0,0-.207-.678.912.912,0,0,0-.7-.225.958.958,0,0,0-.668.24A.975.975,0,0,0,8.99-2.8V0H8.264V-2.77a.806.806,0,0,0-.9-.922.967.967,0,0,0-.973.605V0H5.666V-4.227Z" transform="translate(1015 10499.72) rotate(-90)" fill="#4b1c16"/>
    <path id="Trazado_895144" data-name="Trazado 895144" d="M2.746-2.3H1.41V0H.656V-5.687H2.539a2.229,2.229,0,0,1,1.479.438,1.574,1.574,0,0,1,.518,1.273,1.531,1.531,0,0,1-.287.926,1.714,1.714,0,0,1-.8.59L4.785-.047V0h-.8ZM1.41-2.914H2.563a1.3,1.3,0,0,0,.889-.29.979.979,0,0,0,.33-.775,1.031,1.031,0,0,0-.314-.81,1.332,1.332,0,0,0-.908-.286H1.41ZM7.227.078a1.847,1.847,0,0,1-1.4-.564A2.1,2.1,0,0,1,5.289-2v-.133a2.536,2.536,0,0,1,.24-1.123A1.874,1.874,0,0,1,6.2-4.025,1.689,1.689,0,0,1,7.137-4.3a1.583,1.583,0,0,1,1.281.543,2.351,2.351,0,0,1,.457,1.555v.3H6.012A1.5,1.5,0,0,0,6.377-.9a1.148,1.148,0,0,0,.889.385,1.259,1.259,0,0,0,.648-.156,1.629,1.629,0,0,0,.465-.414l.441.344A1.775,1.775,0,0,1,7.227.078Zm-.09-3.789a.964.964,0,0,0-.734.318,1.547,1.547,0,0,0-.367.893H8.152v-.055a1.376,1.376,0,0,0-.3-.854A.908.908,0,0,0,7.137-3.711ZM10.066,0V-3.668H9.4v-.559h.668V-4.66a1.439,1.439,0,0,1,.363-1.051,1.372,1.372,0,0,1,1.027-.371,1.908,1.908,0,0,1,.5.066l-.039.582a2.075,2.075,0,0,0-.391-.035.705.705,0,0,0-.543.206.834.834,0,0,0-.191.59v.447h.9v.559h-.9V0ZM15.1-.418a1.535,1.535,0,0,1-1.238.5A1.314,1.314,0,0,1,12.83-.314a1.7,1.7,0,0,1-.357-1.162v-2.75H13.2V-1.5q0,.961.781.961a1.082,1.082,0,0,0,1.1-.617V-4.227H15.8V0h-.687Zm3.555.5a1.847,1.847,0,0,1-1.4-.564A2.1,2.1,0,0,1,16.715-2v-.133a2.536,2.536,0,0,1,.24-1.123,1.874,1.874,0,0,1,.672-.773,1.689,1.689,0,0,1,.936-.279,1.583,1.583,0,0,1,1.281.543A2.351,2.351,0,0,1,20.3-2.207v.3H17.438A1.5,1.5,0,0,0,17.8-.9a1.148,1.148,0,0,0,.889.385,1.259,1.259,0,0,0,.648-.156,1.629,1.629,0,0,0,.465-.414l.441.344A1.775,1.775,0,0,1,18.652.078Zm-.09-3.789a.964.964,0,0,0-.734.318,1.547,1.547,0,0,0-.367.893h2.117v-.055a1.376,1.376,0,0,0-.3-.854A.908.908,0,0,0,18.563-3.711Zm4.617.133a2.166,2.166,0,0,0-.355-.027A.952.952,0,0,0,21.859-3V0h-.723V-4.227h.7l.012.488A1.125,1.125,0,0,1,22.859-4.3a.738.738,0,0,1,.32.055ZM24.523-.59H27V0H23.641V-.531l2.332-3.1h-2.3v-.6h3.2v.512Zm3.031-1.562A2.5,2.5,0,0,1,27.8-3.27a1.821,1.821,0,0,1,.68-.766,1.85,1.85,0,0,1,.994-.27,1.782,1.782,0,0,1,1.4.6,2.3,2.3,0,0,1,.533,1.59v.051a2.518,2.518,0,0,1-.236,1.107A1.794,1.794,0,0,1,30.49-.2a1.871,1.871,0,0,1-1.01.273,1.778,1.778,0,0,1-1.393-.6A2.288,2.288,0,0,1,27.555-2.1Zm.727.086a1.808,1.808,0,0,0,.326,1.129,1.044,1.044,0,0,0,.873.426,1.038,1.038,0,0,0,.875-.432,1.977,1.977,0,0,0,.324-1.209,1.805,1.805,0,0,0-.33-1.127,1.049,1.049,0,0,0-.877-.432,1.038,1.038,0,0,0-.863.426A1.963,1.963,0,0,0,28.281-2.066Zm5.832-.082a2.476,2.476,0,0,1,.461-1.564A1.458,1.458,0,0,1,35.781-4.3a1.466,1.466,0,0,1,1.176.508V-6h.723V0h-.664L36.98-.453a1.472,1.472,0,0,1-1.207.531,1.444,1.444,0,0,1-1.2-.6,2.5,2.5,0,0,1-.463-1.57Zm.723.082a1.875,1.875,0,0,0,.3,1.125.96.96,0,0,0,.82.406,1.054,1.054,0,0,0,1-.617V-3.094a1.062,1.062,0,0,0-1-.6.964.964,0,0,0-.828.41A2.064,2.064,0,0,0,34.836-2.066ZM40.555.078a1.847,1.847,0,0,1-1.4-.564A2.1,2.1,0,0,1,38.617-2v-.133a2.536,2.536,0,0,1,.24-1.123,1.874,1.874,0,0,1,.672-.773,1.689,1.689,0,0,1,.936-.279,1.583,1.583,0,0,1,1.281.543A2.351,2.351,0,0,1,42.2-2.207v.3H39.34A1.5,1.5,0,0,0,39.705-.9a1.148,1.148,0,0,0,.889.385,1.259,1.259,0,0,0,.648-.156,1.629,1.629,0,0,0,.465-.414l.441.344A1.775,1.775,0,0,1,40.555.078Zm-.09-3.789a.964.964,0,0,0-.734.318,1.547,1.547,0,0,0-.367.893H41.48v-.055a1.376,1.376,0,0,0-.3-.854A.908.908,0,0,0,40.465-3.711ZM45.8,0h-.723V-6H45.8ZM49.57,0a1.518,1.518,0,0,1-.1-.445,1.612,1.612,0,0,1-1.2.523A1.492,1.492,0,0,1,47.24-.275a1.144,1.144,0,0,1-.4-.9,1.2,1.2,0,0,1,.5-1.025,2.367,2.367,0,0,1,1.412-.365h.7v-.332a.812.812,0,0,0-.227-.6.911.911,0,0,0-.668-.225,1.054,1.054,0,0,0-.648.2.576.576,0,0,0-.262.473h-.727a1,1,0,0,1,.225-.611,1.533,1.533,0,0,1,.609-.467,2.05,2.05,0,0,1,.846-.172,1.671,1.671,0,0,1,1.145.365,1.318,1.318,0,0,1,.43,1.006V-.988a2.378,2.378,0,0,0,.148.926V0Zm-1.2-.551a1.27,1.27,0,0,0,.645-.176,1.063,1.063,0,0,0,.441-.457v-.867h-.566q-1.328,0-1.328.777a.658.658,0,0,0,.227.531A.871.871,0,0,0,48.371-.551Zm8.5-1.516A2.513,2.513,0,0,1,56.426-.51a1.423,1.423,0,0,1-1.2.588,1.473,1.473,0,0,1-1.238-.566L53.957,0h-.664V-6h.723v2.238A1.465,1.465,0,0,1,55.223-4.3a1.432,1.432,0,0,1,1.209.582,2.589,2.589,0,0,1,.439,1.594Zm-.723-.082a1.953,1.953,0,0,0-.285-1.141.944.944,0,0,0-.82-.4,1.061,1.061,0,0,0-1.027.664V-1.2a1.091,1.091,0,0,0,1.035.664.939.939,0,0,0,.809-.4A2.077,2.077,0,0,0,56.148-2.148ZM60.391,0a1.518,1.518,0,0,1-.1-.445,1.612,1.612,0,0,1-1.2.523,1.492,1.492,0,0,1-1.025-.354,1.144,1.144,0,0,1-.4-.9,1.2,1.2,0,0,1,.5-1.025,2.367,2.367,0,0,1,1.412-.365h.7v-.332a.812.812,0,0,0-.227-.6.911.911,0,0,0-.668-.225,1.054,1.054,0,0,0-.648.2.576.576,0,0,0-.262.473h-.727a1,1,0,0,1,.225-.611,1.533,1.533,0,0,1,.609-.467,2.05,2.05,0,0,1,.846-.172,1.671,1.671,0,0,1,1.145.365A1.318,1.318,0,0,1,61-2.934V-.988a2.378,2.378,0,0,0,.148.926V0Zm-1.2-.551a1.27,1.27,0,0,0,.645-.176,1.063,1.063,0,0,0,.441-.457v-.867h-.566q-1.328,0-1.328.777a.658.658,0,0,0,.227.531A.871.871,0,0,0,59.191-.551Zm5.4-.57a.532.532,0,0,0-.221-.455,2.124,2.124,0,0,0-.77-.279,3.638,3.638,0,0,1-.871-.281,1.239,1.239,0,0,1-.477-.391.934.934,0,0,1-.154-.539,1.1,1.1,0,0,1,.439-.879A1.716,1.716,0,0,1,63.664-4.3a1.766,1.766,0,0,1,1.166.371,1.179,1.179,0,0,1,.447.949h-.727A.652.652,0,0,0,64.3-3.5a.944.944,0,0,0-.635-.215.988.988,0,0,0-.617.172.541.541,0,0,0-.223.449.438.438,0,0,0,.207.395,2.547,2.547,0,0,0,.748.254,3.9,3.9,0,0,1,.877.289,1.279,1.279,0,0,1,.5.4.994.994,0,0,1,.162.576,1.082,1.082,0,0,1-.453.908,1.9,1.9,0,0,1-1.176.342,2.128,2.128,0,0,1-.9-.18,1.461,1.461,0,0,1-.611-.5,1.21,1.21,0,0,1-.221-.7h.723a.748.748,0,0,0,.291.576,1.129,1.129,0,0,0,.717.213,1.165,1.165,0,0,0,.658-.166A.51.51,0,0,0,64.594-1.121Zm3.418,1.2a1.847,1.847,0,0,1-1.4-.564A2.1,2.1,0,0,1,66.074-2v-.133a2.536,2.536,0,0,1,.24-1.123,1.874,1.874,0,0,1,.672-.773,1.689,1.689,0,0,1,.936-.279,1.583,1.583,0,0,1,1.281.543,2.351,2.351,0,0,1,.457,1.555v.3H66.8A1.5,1.5,0,0,0,67.162-.9a1.148,1.148,0,0,0,.889.385A1.259,1.259,0,0,0,68.7-.668a1.629,1.629,0,0,0,.465-.414l.441.344A1.775,1.775,0,0,1,68.012.078Zm-.09-3.789a.964.964,0,0,0-.734.318,1.547,1.547,0,0,0-.367.893h2.117v-.055a1.376,1.376,0,0,0-.3-.854A.908.908,0,0,0,67.922-3.711Zm2.59,3.332a.453.453,0,0,1,.111-.312.424.424,0,0,1,.334-.125.437.437,0,0,1,.338.125.443.443,0,0,1,.115.313.419.419,0,0,1-.115.3.445.445,0,0,1-.338.121.432.432,0,0,1-.334-.121A.428.428,0,0,1,70.512-.379ZM4.844,7.2a2.092,2.092,0,0,1-.666,1.393,2.183,2.183,0,0,1-1.49.49,2,2,0,0,1-1.615-.723A2.907,2.907,0,0,1,.465,6.422V5.875A3.241,3.241,0,0,1,.748,4.48a2.115,2.115,0,0,1,.8-.924,2.235,2.235,0,0,1,1.2-.322,2.055,2.055,0,0,1,1.453.506,2.118,2.118,0,0,1,.637,1.4H4.09a1.634,1.634,0,0,0-.424-.987,1.282,1.282,0,0,0-.912-.306,1.342,1.342,0,0,0-1.127.532,2.441,2.441,0,0,0-.408,1.513v.551a2.509,2.509,0,0,0,.387,1.474,1.25,1.25,0,0,0,1.082.547,1.443,1.443,0,0,0,.959-.283A1.572,1.572,0,0,0,4.09,7.2ZM8.363,9a1.518,1.518,0,0,1-.1-.445,1.612,1.612,0,0,1-1.2.523,1.492,1.492,0,0,1-1.025-.354,1.144,1.144,0,0,1-.4-.9,1.2,1.2,0,0,1,.5-1.025,2.367,2.367,0,0,1,1.412-.365h.7V6.105a.812.812,0,0,0-.227-.6.911.911,0,0,0-.668-.225,1.054,1.054,0,0,0-.648.2.576.576,0,0,0-.262.473H5.719a1,1,0,0,1,.225-.611,1.533,1.533,0,0,1,.609-.467A2.05,2.05,0,0,1,7.4,4.7a1.671,1.671,0,0,1,1.145.365,1.318,1.318,0,0,1,.43,1.006V8.012a2.378,2.378,0,0,0,.148.926V9Zm-1.2-.551a1.27,1.27,0,0,0,.645-.176,1.063,1.063,0,0,0,.441-.457V6.949H7.684q-1.328,0-1.328.777a.658.658,0,0,0,.227.531A.871.871,0,0,0,7.164,8.449Zm3.625-3.676.023.531A1.54,1.54,0,0,1,12.078,4.7q1.34,0,1.352,1.512V9h-.723V6.2a.973.973,0,0,0-.209-.676.837.837,0,0,0-.639-.219,1.043,1.043,0,0,0-.617.188,1.273,1.273,0,0,0-.414.492V9h-.723V4.773ZM15.5,3.75V4.773h.789v.559H15.5V7.956a.587.587,0,0,0,.105.381.444.444,0,0,0,.359.127,1.75,1.75,0,0,0,.344-.047V9a2.107,2.107,0,0,1-.555.078.9.9,0,0,1-.73-.293,1.259,1.259,0,0,1-.246-.832V5.332h-.77V4.773h.77V3.75ZM17.918,9H17.2V4.773h.723Zm-.781-5.348a.431.431,0,0,1,.107-.3.4.4,0,0,1,.318-.121.41.41,0,0,1,.32.121.427.427,0,0,1,.109.3.413.413,0,0,1-.109.293.417.417,0,0,1-.32.117.411.411,0,0,1-.318-.117A.417.417,0,0,1,17.137,3.652Zm1.762,3.2a2.476,2.476,0,0,1,.461-1.564A1.568,1.568,0,0,1,21.742,5.2V3h.723V9H21.8l-.035-.453a1.472,1.472,0,0,1-1.207.531,1.444,1.444,0,0,1-1.2-.6,2.5,2.5,0,0,1-.463-1.57Zm.723.082a1.875,1.875,0,0,0,.3,1.125.96.96,0,0,0,.82.406,1.054,1.054,0,0,0,1-.617V5.906a1.062,1.062,0,0,0-1-.6.964.964,0,0,0-.828.41A2.064,2.064,0,0,0,19.621,6.934ZM26.2,9a1.518,1.518,0,0,1-.1-.445,1.612,1.612,0,0,1-1.2.523,1.492,1.492,0,0,1-1.025-.354,1.144,1.144,0,0,1-.4-.9,1.2,1.2,0,0,1,.5-1.025,2.367,2.367,0,0,1,1.412-.365h.7V6.105a.812.812,0,0,0-.227-.6.911.911,0,0,0-.668-.225,1.054,1.054,0,0,0-.648.2.576.576,0,0,0-.262.473h-.727a1,1,0,0,1,.225-.611,1.533,1.533,0,0,1,.609-.467A2.05,2.05,0,0,1,25.23,4.7a1.671,1.671,0,0,1,1.145.365,1.318,1.318,0,0,1,.43,1.006V8.012a2.378,2.378,0,0,0,.148.926V9ZM25,8.449a1.27,1.27,0,0,0,.645-.176,1.063,1.063,0,0,0,.441-.457V6.949h-.566q-1.328,0-1.328.777a.658.658,0,0,0,.227.531A.871.871,0,0,0,25,8.449Zm2.766-1.6a2.476,2.476,0,0,1,.461-1.564A1.568,1.568,0,0,1,30.605,5.2V3h.723V9h-.664l-.035-.453a1.472,1.472,0,0,1-1.207.531,1.444,1.444,0,0,1-1.2-.6,2.5,2.5,0,0,1-.463-1.57Zm.723.082a1.875,1.875,0,0,0,.3,1.125.96.96,0,0,0,.82.406,1.054,1.054,0,0,0,1-.617V5.906a1.062,1.062,0,0,0-1-.6.964.964,0,0,0-.828.41A2.064,2.064,0,0,0,28.484,6.934Zm3.98,1.688a.453.453,0,0,1,.111-.312.424.424,0,0,1,.334-.125.437.437,0,0,1,.338.125.443.443,0,0,1,.115.313.419.419,0,0,1-.115.3.445.445,0,0,1-.338.121.4.4,0,0,1-.445-.422ZM1.629,12.313l1.859,4.641,1.859-4.641H6.32V18H5.57V15.785l.07-2.391L3.773,18H3.2L1.336,13.406l.074,2.379V18H.66V12.313ZM10.141,18a1.518,1.518,0,0,1-.1-.445,1.612,1.612,0,0,1-1.2.523,1.492,1.492,0,0,1-1.025-.354,1.144,1.144,0,0,1-.4-.9,1.2,1.2,0,0,1,.5-1.025,2.367,2.367,0,0,1,1.412-.365h.7v-.332a.812.812,0,0,0-.227-.6.911.911,0,0,0-.668-.225,1.054,1.054,0,0,0-.648.2.576.576,0,0,0-.262.473H7.5a1,1,0,0,1,.225-.611,1.533,1.533,0,0,1,.609-.467,2.05,2.05,0,0,1,.846-.172,1.671,1.671,0,0,1,1.145.365,1.318,1.318,0,0,1,.43,1.006v1.945a2.378,2.378,0,0,0,.148.926V18Zm-1.2-.551a1.27,1.27,0,0,0,.645-.176,1.063,1.063,0,0,0,.441-.457v-.867H9.461q-1.328,0-1.328.777a.658.658,0,0,0,.227.531A.871.871,0,0,0,8.941,17.449Zm3.922-4.7v1.023h.789v.559h-.789v2.624a.587.587,0,0,0,.105.381.444.444,0,0,0,.359.127,1.75,1.75,0,0,0,.344-.047V18a2.107,2.107,0,0,1-.555.078.9.9,0,0,1-.73-.293,1.259,1.259,0,0,1-.246-.832V14.332h-.77v-.559h.77V12.75Zm3.387,5.328a1.847,1.847,0,0,1-1.4-.564A2.1,2.1,0,0,1,14.313,16v-.133a2.536,2.536,0,0,1,.24-1.123,1.874,1.874,0,0,1,.672-.773,1.689,1.689,0,0,1,.936-.279,1.583,1.583,0,0,1,1.281.543,2.351,2.351,0,0,1,.457,1.555v.3H15.035A1.5,1.5,0,0,0,15.4,17.1a1.148,1.148,0,0,0,.889.385,1.259,1.259,0,0,0,.648-.156,1.629,1.629,0,0,0,.465-.414l.441.344A1.775,1.775,0,0,1,16.25,18.078Zm-.09-3.789a.964.964,0,0,0-.734.318,1.547,1.547,0,0,0-.367.893h2.117v-.055a1.376,1.376,0,0,0-.3-.854A.908.908,0,0,0,16.16,14.289Zm4.617.133a2.166,2.166,0,0,0-.355-.027.952.952,0,0,0-.965.605v3h-.723V13.773h.7l.012.488a1.125,1.125,0,0,1,1.008-.566.738.738,0,0,1,.32.055ZM22.227,18H21.5V13.773h.723Zm-.781-5.348a.431.431,0,0,1,.107-.3.4.4,0,0,1,.318-.121.41.41,0,0,1,.32.121.427.427,0,0,1,.109.3.413.413,0,0,1-.109.293.417.417,0,0,1-.32.117.411.411,0,0,1-.318-.117A.417.417,0,0,1,21.445,12.652ZM25.992,18a1.518,1.518,0,0,1-.1-.445,1.612,1.612,0,0,1-1.2.523,1.492,1.492,0,0,1-1.025-.354,1.144,1.144,0,0,1-.4-.9,1.2,1.2,0,0,1,.5-1.025,2.367,2.367,0,0,1,1.412-.365h.7v-.332a.812.812,0,0,0-.227-.6.911.911,0,0,0-.668-.225,1.054,1.054,0,0,0-.648.2.576.576,0,0,0-.262.473h-.727a1,1,0,0,1,.225-.611,1.533,1.533,0,0,1,.609-.467,2.05,2.05,0,0,1,.846-.172,1.671,1.671,0,0,1,1.145.365,1.318,1.318,0,0,1,.43,1.006v1.945a2.378,2.378,0,0,0,.148.926V18Zm-1.2-.551a1.27,1.27,0,0,0,.645-.176,1.063,1.063,0,0,0,.441-.457v-.867h-.566q-1.328,0-1.328.777a.658.658,0,0,0,.227.531A.871.871,0,0,0,24.793,17.449ZM28.52,18H27.8V12h.723Zm1.172-.379a.453.453,0,0,1,.111-.312.424.424,0,0,1,.334-.125.437.437,0,0,1,.338.125.443.443,0,0,1,.115.313.419.419,0,0,1-.115.3.445.445,0,0,1-.338.121.4.4,0,0,1-.445-.422ZM1.629,21.313l1.859,4.641,1.859-4.641H6.32V27H5.57V24.785l.07-2.391L3.773,27H3.2L1.336,22.406l.074,2.379V27H.66V21.313ZM7.34,24.848a2.5,2.5,0,0,1,.244-1.117,1.821,1.821,0,0,1,.68-.766,1.85,1.85,0,0,1,.994-.27,1.782,1.782,0,0,1,1.4.6,2.3,2.3,0,0,1,.533,1.59v.051a2.518,2.518,0,0,1-.236,1.107,1.794,1.794,0,0,1-.676.764,1.871,1.871,0,0,1-1.01.273,1.778,1.778,0,0,1-1.393-.6A2.288,2.288,0,0,1,7.34,24.9Zm.727.086a1.808,1.808,0,0,0,.326,1.129,1.105,1.105,0,0,0,1.748-.006,1.977,1.977,0,0,0,.324-1.209,1.805,1.805,0,0,0-.33-1.127,1.049,1.049,0,0,0-.877-.432,1.038,1.038,0,0,0-.863.426A1.963,1.963,0,0,0,8.066,24.934ZM12.879,27h-.723V21h.723Zm.98-2.148a2.476,2.476,0,0,1,.461-1.564A1.568,1.568,0,0,1,16.7,23.2V21h.723v6h-.664l-.035-.453a1.472,1.472,0,0,1-1.207.531,1.444,1.444,0,0,1-1.2-.6,2.5,2.5,0,0,1-.463-1.57Zm.723.082a1.875,1.875,0,0,0,.3,1.125.96.96,0,0,0,.82.406,1.054,1.054,0,0,0,1-.617V23.906a1.062,1.062,0,0,0-1-.6.964.964,0,0,0-.828.41A2.064,2.064,0,0,0,14.582,24.934ZM20.3,27.078a1.847,1.847,0,0,1-1.4-.564A2.1,2.1,0,0,1,18.363,25v-.133a2.536,2.536,0,0,1,.24-1.123,1.874,1.874,0,0,1,.672-.773,1.689,1.689,0,0,1,.936-.279,1.583,1.583,0,0,1,1.281.543,2.351,2.351,0,0,1,.457,1.555v.3H19.086a1.5,1.5,0,0,0,.365,1.01,1.148,1.148,0,0,0,.889.385,1.259,1.259,0,0,0,.648-.156,1.629,1.629,0,0,0,.465-.414l.441.344A1.775,1.775,0,0,1,20.3,27.078Zm-.09-3.789a.964.964,0,0,0-.734.318,1.547,1.547,0,0,0-.367.893h2.117v-.055a1.376,1.376,0,0,0-.3-.854A.908.908,0,0,0,20.211,23.289ZM29.25,27H28.5l-2.863-4.383V27h-.754V21.313h.754l2.871,4.4v-4.4h.746Zm1.027-2.152a2.5,2.5,0,0,1,.244-1.117,1.821,1.821,0,0,1,.68-.766,1.85,1.85,0,0,1,.994-.27,1.782,1.782,0,0,1,1.4.6,2.3,2.3,0,0,1,.533,1.59v.051a2.518,2.518,0,0,1-.236,1.107,1.794,1.794,0,0,1-.676.764,1.871,1.871,0,0,1-1.01.273,1.778,1.778,0,0,1-1.393-.6,2.288,2.288,0,0,1-.533-1.582Zm.727.086a1.808,1.808,0,0,0,.326,1.129,1.105,1.105,0,0,0,1.748-.006,1.977,1.977,0,0,0,.324-1.209,1.805,1.805,0,0,0-.33-1.127,1.049,1.049,0,0,0-.877-.432,1.038,1.038,0,0,0-.863.426A1.963,1.963,0,0,0,31,24.934Zm4.043,1.688a.453.453,0,0,1,.111-.312.424.424,0,0,1,.334-.125.437.437,0,0,1,.338.125.443.443,0,0,1,.115.313.419.419,0,0,1-.115.3.445.445,0,0,1-.338.121.4.4,0,0,1-.445-.422ZM2.746,33.7H1.41V36H.656V30.313H2.539a2.229,2.229,0,0,1,1.479.438,1.574,1.574,0,0,1,.518,1.273,1.531,1.531,0,0,1-.287.926,1.714,1.714,0,0,1-.8.59l1.336,2.414V36h-.8ZM1.41,33.086H2.563a1.3,1.3,0,0,0,.889-.29.979.979,0,0,0,.33-.775,1.031,1.031,0,0,0-.314-.81,1.332,1.332,0,0,0-.908-.286H1.41ZM5.828,36V32.332H5.16v-.559h.668V31.34a1.439,1.439,0,0,1,.363-1.051,1.372,1.372,0,0,1,1.027-.371,1.908,1.908,0,0,1,.5.066l-.039.582a2.075,2.075,0,0,0-.391-.035.705.705,0,0,0-.543.206.834.834,0,0,0-.191.59v.447h.9v.559h-.9V36Zm4.082.078a1.847,1.847,0,0,1-1.4-.564A2.1,2.1,0,0,1,7.973,34v-.133a2.536,2.536,0,0,1,.24-1.123,1.874,1.874,0,0,1,.672-.773A1.689,1.689,0,0,1,9.82,31.7a1.583,1.583,0,0,1,1.281.543,2.351,2.351,0,0,1,.457,1.555v.3H8.7a1.5,1.5,0,0,0,.365,1.01,1.148,1.148,0,0,0,.889.385,1.259,1.259,0,0,0,.648-.156,1.629,1.629,0,0,0,.465-.414l.441.344A1.775,1.775,0,0,1,9.91,36.078Zm-.09-3.789a.964.964,0,0,0-.734.318,1.547,1.547,0,0,0-.367.893h2.117v-.055a1.376,1.376,0,0,0-.3-.854A.908.908,0,0,0,9.82,32.289Zm4.617.133a2.165,2.165,0,0,0-.355-.027.952.952,0,0,0-.965.605v3h-.723V31.773h.7l.012.488a1.125,1.125,0,0,1,1.008-.566.738.738,0,0,1,.32.055Zm2.344,3.656a1.847,1.847,0,0,1-1.4-.564A2.1,2.1,0,0,1,14.844,34v-.133a2.536,2.536,0,0,1,.24-1.123,1.874,1.874,0,0,1,.672-.773,1.689,1.689,0,0,1,.936-.279,1.583,1.583,0,0,1,1.281.543,2.351,2.351,0,0,1,.457,1.555v.3H15.566a1.5,1.5,0,0,0,.365,1.01,1.148,1.148,0,0,0,.889.385,1.259,1.259,0,0,0,.648-.156,1.629,1.629,0,0,0,.465-.414l.441.344A1.775,1.775,0,0,1,16.781,36.078Zm-.09-3.789a.964.964,0,0,0-.734.318,1.547,1.547,0,0,0-.367.893h2.117v-.055a1.376,1.376,0,0,0-.3-.854A.908.908,0,0,0,16.691,32.289Zm3.258-.516.023.531a1.54,1.54,0,0,1,1.266-.609q1.34,0,1.352,1.512V36h-.723V33.2a.973.973,0,0,0-.209-.676.837.837,0,0,0-.639-.219,1.043,1.043,0,0,0-.617.188,1.273,1.273,0,0,0-.414.492V36h-.723V31.773Zm5.426,3.715a1.041,1.041,0,0,0,.676-.234.825.825,0,0,0,.32-.586h.684a1.31,1.31,0,0,1-.25.691,1.647,1.647,0,0,1-.615.523,1.775,1.775,0,0,1-.814.2A1.741,1.741,0,0,1,24,35.5a2.3,2.3,0,0,1-.51-1.576V33.8a2.545,2.545,0,0,1,.227-1.1,1.726,1.726,0,0,1,.65-.746,1.848,1.848,0,0,1,1-.266,1.7,1.7,0,0,1,1.182.426,1.522,1.522,0,0,1,.5,1.105h-.684a1,1,0,0,0-.311-.674.966.966,0,0,0-.689-.264,1.011,1.011,0,0,0-.854.4,1.862,1.862,0,0,0-.3,1.146v.137a1.825,1.825,0,0,0,.3,1.125A1.016,1.016,0,0,0,25.375,35.488ZM28.652,36H27.93V31.773h.723Zm-.781-5.348a.431.431,0,0,1,.107-.3.4.4,0,0,1,.318-.121.41.41,0,0,1,.32.121.427.427,0,0,1,.109.3.413.413,0,0,1-.109.293.417.417,0,0,1-.32.117.411.411,0,0,1-.318-.117A.417.417,0,0,1,27.871,30.652ZM32.418,36a1.518,1.518,0,0,1-.1-.445,1.612,1.612,0,0,1-1.2.523,1.492,1.492,0,0,1-1.025-.354,1.144,1.144,0,0,1-.4-.9,1.2,1.2,0,0,1,.5-1.025,2.367,2.367,0,0,1,1.412-.365h.7v-.332a.812.812,0,0,0-.227-.6.911.911,0,0,0-.668-.225,1.054,1.054,0,0,0-.648.2.576.576,0,0,0-.262.473h-.727A1,1,0,0,1,30,32.334a1.533,1.533,0,0,1,.609-.467,2.05,2.05,0,0,1,.846-.172,1.671,1.671,0,0,1,1.145.365,1.318,1.318,0,0,1,.43,1.006v1.945a2.378,2.378,0,0,0,.148.926V36Zm-1.2-.551a1.27,1.27,0,0,0,.645-.176,1.063,1.063,0,0,0,.441-.457v-.867h-.566q-1.328,0-1.328.777a.658.658,0,0,0,.227.531A.871.871,0,0,0,31.219,35.449Z" transform="translate(705 10488.459)" fill="#4b1c16"/>
    <path id="Trazado_895141" data-name="Trazado 895141" d="M0,0H12.743" transform="translate(1000.243 10470.418)" fill="none" stroke="#655647" stroke-width="1"/>
    <path id="Trazado_895145" data-name="Trazado 895145" d="M0,0H12.743" transform="translate(1000.243 10536.439)" fill="none" stroke="#655647" stroke-width="1"/>
    <path id="Trazado_895142" data-name="Trazado 895142" d="M0,0V66.082" transform="translate(1005.115 10470.418)" fill="none" stroke="#655647" stroke-width="1"/>
    <path id="Trazado_895146" data-name="Trazado 895146" d="M0,0V14" transform="translate(1000 10536.5)" fill="none" stroke="#655647" stroke-width="1"/>
    <path id="Trazado_895143" data-name="Trazado 895143" d="M0,0H399.757" transform="translate(600.5 10499.5)" fill="none" stroke="#b6a3a1" stroke-width="1"/>
    <path id="Trazado_895147" data-name="Trazado 895147" d="M0,0H399.757" transform="translate(600.5 10543.5)" fill="none" stroke="#655647" stroke-width="1"/>
  </g>
</svg>
