<svg xmlns="http://www.w3.org/2000/svg" width="820" height="320.991" viewBox="0 0 820 320.991">
  <g id="Grupo_1106678" data-name="Grupo 1106678" transform="translate(-390 -1245.672)">
    <rect id="Rectángulo_402124" data-name="Rectángulo 402124" width="820" height="320.991" rx="23" transform="translate(390 1245.672)" fill="#edf1ef"/>
    <path id="Trazado_873226" data-name="Trazado 873226" d="M192.565,123.569c0-30.384,23.641-45.871,34.134-51.249a5.738,5.738,0,0,0,2.658-7.406l-18.046-41.25a5.737,5.737,0,0,0-7.054-3.142C190.9,24.908,153.673,33.469,136.576,0H93.425C76.327,33.469,39.1,24.908,25.743,20.523a5.737,5.737,0,0,0-7.054,3.142L.642,64.914A5.739,5.739,0,0,0,3.3,72.32C13.793,77.7,37.435,93.185,37.435,123.569c0,30.779-24.26,47.932-34.537,53.819A5.737,5.737,0,0,0,.457,184.61l15.761,37.061a5.757,5.757,0,0,0,6.6,3.374c55.7-13.191,92.18,35.11,92.18,35.11s36.479-48.3,92.18-35.11a5.758,5.758,0,0,0,6.6-3.374l15.761-37.061a5.737,5.737,0,0,0-2.441-7.223c-10.278-5.886-34.537-23.04-34.537-53.819" transform="translate(685.456 1272.001)" fill="#93614c"/>
    <text id="Crupón" transform="translate(800.456 1408)" fill="#fff" font-size="16" font-family="Roboto-Black, Roboto" font-weight="800"><tspan x="-26.301" y="0">Crupón</tspan></text>
    <text id="Cuello" transform="translate(800.456 1306)" fill="#fff" font-size="16" font-family="Roboto-Black, Roboto" font-weight="800"><tspan x="-23.008" y="0">Cuello</tspan></text>
    <text id="Cola" transform="translate(800.456 1504)" fill="#fff" font-size="16" font-family="Roboto-Black, Roboto" font-weight="800"><tspan x="-16.188" y="0">Cola</tspan></text>
    <text id="Estira_el_material" data-name="Estira el material" transform="translate(800.456 1551)" fill="#4b1c16" font-size="10" font-family="Roboto-Regular, Roboto"><tspan x="-37.141" y="0">Estira el material</tspan></text>
    <text id="Falda" transform="translate(696.456 1403)" fill="#12263f" font-size="16" font-family="Roboto-Black, Roboto" font-weight="800"><tspan x="-19.434" y="0">Falda</tspan></text>
    <text id="Falda-2" data-name="Falda" transform="translate(906.456 1403)" fill="#12263f" font-size="16" font-family="Roboto-Black, Roboto" font-weight="800"><tspan x="-19.434" y="0">Falda</tspan></text>
    <g id="Rectángulo_402125" data-name="Rectángulo 402125" transform="translate(727.456 1323)" fill="none" stroke="#f4eee8" stroke-width="1">
      <rect width="146" height="159" stroke="none"/>
      <rect x="0.5" y="0.5" width="145" height="158" fill="none"/>
    </g>
    <g id="Grupo_1106677" data-name="Grupo 1106677">
      <line id="Línea_725" data-name="Línea 725" x2="233" transform="translate(682.456 1538)" fill="none" stroke="#567e6f" stroke-width="1"/>
      <path id="Polígono_6" data-name="Polígono 6" d="M3,0,6,5H0Z" transform="translate(680 1541) rotate(-90)" fill="#567e6f"/>
      <path id="Polígono_7" data-name="Polígono 7" d="M3,0,6,5H0Z" transform="translate(920 1535) rotate(90)" fill="#567e6f"/>
    </g>
  </g>
</svg>
