<svg xmlns="http://www.w3.org/2000/svg" width="67.088" height="40.253" viewBox="0 0 67.088 40.253">
  <g id="medida" transform="translate(0 -102.4)">
    <g id="Grupo_1106529" data-name="Grupo 1106529" transform="translate(0 126.999)">
      <g id="Grupo_1106528" data-name="Grupo 1106528">
        <path id="Trazado_891133" data-name="Trazado 891133" d="M65.97,290.133H1.118A1.117,1.117,0,0,0,0,291.251v13.418a1.117,1.117,0,0,0,1.118,1.118H65.97a1.117,1.117,0,0,0,1.118-1.118V291.251A1.117,1.117,0,0,0,65.97,290.133Zm-1.118,13.418H2.236V292.369H5.591v2.236a1.118,1.118,0,1,0,2.236,0v-2.236H12.3v4.473a1.118,1.118,0,0,0,2.236,0v-4.473h4.472v2.236a1.118,1.118,0,1,0,2.236,0v-2.236h4.472v4.473a1.118,1.118,0,0,0,2.236,0v-4.473h4.472v2.236a1.118,1.118,0,1,0,2.236,0v-2.236h4.472v4.473a1.118,1.118,0,0,0,2.236,0v-4.473h4.472v2.236a1.118,1.118,0,1,0,2.236,0v-2.236h4.472v4.473a1.118,1.118,0,0,0,2.236,0v-4.473h4.475v2.236a1.118,1.118,0,1,0,2.236,0v-2.236h3.352v11.181Z" transform="translate(0 -290.133)" fill="#567e6f"/>
      </g>
    </g>
    <g id="Grupo_1106531" data-name="Grupo 1106531" transform="translate(0 102.4)">
      <g id="Grupo_1106530" data-name="Grupo 1106530">
        <path id="Trazado_891134" data-name="Trazado 891134" d="M1.118,102.4A1.117,1.117,0,0,0,0,103.518v19.008a1.118,1.118,0,1,0,2.236,0V103.518A1.117,1.117,0,0,0,1.118,102.4Z" transform="translate(0 -102.4)" fill="#567e6f"/>
      </g>
    </g>
    <g id="Grupo_1106533" data-name="Grupo 1106533" transform="translate(64.852 102.4)">
      <g id="Grupo_1106532" data-name="Grupo 1106532">
        <path id="Trazado_891135" data-name="Trazado 891135" d="M496.052,102.4a1.117,1.117,0,0,0-1.118,1.118v19.008a1.118,1.118,0,1,0,2.236,0V103.518A1.117,1.117,0,0,0,496.052,102.4Z" transform="translate(-494.934 -102.4)" fill="#567e6f"/>
      </g>
    </g>
    <g id="Grupo_1106535" data-name="Grupo 1106535" transform="translate(4.473 105.753)">
      <g id="Grupo_1106534" data-name="Grupo 1106534">
        <path id="Trazado_891136" data-name="Trazado 891136" d="M92.036,135.1,86.845,128.4a1,1,0,0,0-1.152-.335,1.12,1.12,0,0,0-.684,1.052V134.7H41.4v-5.592a1.117,1.117,0,0,0-.684-1.051.992.992,0,0,0-1.152.335l-5.191,6.71a1.187,1.187,0,0,0,0,1.432l5.191,6.709a1.01,1.01,0,0,0,.8.4.977.977,0,0,0,.353-.067,1.119,1.119,0,0,0,.684-1.051v-5.591H85.008v5.591a1.117,1.117,0,0,0,.684,1.051.977.977,0,0,0,.353.067,1.014,1.014,0,0,0,.8-.4l5.191-6.709a1.186,1.186,0,0,0,0-1.433Zm-52.711,4.337-2.8-3.621,2.8-3.621Zm47.76,0V132.2l2.8,3.621Z" transform="translate(-34.134 -127.993)" fill="#567e6f"/>
      </g>
    </g>
  </g>
</svg>
